<svg width="24" height="24" viewBox="0 0 24 24" fill="none" xmlns="http://www.w3.org/2000/svg">
<path d="M2.28697 11.4425C4.23071 10.3538 6.40047 9.44523 8.42778 8.53198C11.9155 7.03616 15.4172 5.56626 18.9541 4.1978C19.6423 3.96463 20.8788 3.7366 21 4.77354C20.9336 6.24133 20.6605 7.70052 20.4732 9.15972C19.9977 12.3686 19.4482 15.5665 18.9123 18.7649C18.7276 19.8302 17.4151 20.3817 16.5753 19.6999C14.557 18.3137 12.5231 16.941 10.5306 15.5227C9.87791 14.8483 10.4832 13.8799 11.0661 13.3984C12.7284 11.7326 14.4914 10.3174 16.0668 8.56558C16.4918 7.52209 15.2361 8.40152 14.822 8.67097C12.5462 10.2656 10.3262 11.9575 7.92681 13.3589C6.70122 14.0449 5.27277 13.4587 4.04774 13.0759C2.94934 12.6135 1.33978 12.1476 2.28686 11.4425L2.28697 11.4425Z" fill="#352A58"/>
</svg>
