<svg width="24" height="24" viewBox="0 0 24 24" fill="none" xmlns="http://www.w3.org/2000/svg">
<path d="M4.48426 15.0295C4.56175 15.5384 5.00203 15.9185 5.51661 15.9035C7.61651 15.8423 9.75469 15.7579 12 15.7579C14.2386 15.7579 16.3794 15.8109 18.468 15.8911C18.989 15.9111 19.4392 15.5296 19.4991 15.0117C19.6561 13.6515 19.8496 11.8654 19.9435 10.9916C19.9813 10.6399 19.9813 10.2884 19.9435 9.93666C19.8499 9.06539 19.6572 7.28688 19.5004 5.92812C19.4401 5.40546 18.9826 5.02275 18.457 5.04618C16.3943 5.13816 14.2304 5.17035 12 5.17035C9.76274 5.17035 7.60101 5.10712 5.52725 5.03337C5.0082 5.01491 4.5609 5.39615 4.48261 5.9096C4.26913 7.30974 4 8.69726 4 10.4641C4 12.2356 4.27052 13.6257 4.48426 15.0295Z" stroke="#352A58" stroke-width="2"/>
<path d="M8.81055 19.6701H15.1892" stroke="#352A58" stroke-width="2" stroke-linecap="round"/>
<path d="M12 15.7615L12 19.6702" stroke="#352A58" stroke-width="2" stroke-linecap="round"/>
</svg>
