<svg width="24" height="24" viewBox="0 0 24 24" fill="none" xmlns="http://www.w3.org/2000/svg">
<path d="M10.4771 6.62327C9.45341 6.69541 7.87893 8.25589 7.15958 8.54362L6.94751 11.4585L8.16205 13.1589L16.4209 12.916C16.9068 11.5395 17.7326 8.68937 17.1497 8.30072C16.6123 7.94248 14.838 6.79209 13.7393 6.67763C13.606 6.66374 13.4986 6.54303 13.5226 6.41115L13.7152 5.35197C13.8432 4.64801 13.3024 4 12.5869 4C12.1003 4 11.6667 4.30702 11.5052 4.76595L10.9548 6.32898C10.889 6.51605 10.675 6.60933 10.4771 6.62327Z" stroke="#352A58" stroke-width="2" stroke-linejoin="round"/>
<path d="M6.46177 8.5436C8.40504 7.96062 9.70055 9.11039 10.1054 9.75814C11.407 9.02566 12.6058 8.87869 13.9918 9.43233C14.3967 8.78457 15.6922 7.63481 17.6355 8.21779C20.0645 8.94651 23.0093 13.3051 19.0929 17.6912C16.633 20.4461 13.7799 20.8709 12.2915 20.9319C10.8032 20.993 7.88829 20.9319 5.00432 18.017C0.868637 13.837 4.03269 9.27233 6.46177 8.5436Z" fill="white"/>
<path d="M10.1054 9.75814C9.70055 9.11039 8.40504 7.96062 6.46177 8.5436C4.03269 9.27233 0.868637 13.837 5.00432 18.017C7.88829 20.9319 10.8032 20.993 12.2915 20.9319C13.7799 20.8709 16.633 20.4461 19.0929 17.6912C23.0093 13.3051 20.0645 8.94651 17.6355 8.21779C15.6922 7.63481 14.3967 8.78457 13.9918 9.43233M10.1054 9.75814C9.61956 10.082 8.6479 11.2156 8.6479 11.2156M10.1054 9.75814C11.407 9.02566 12.6058 8.87869 13.9918 9.43233M13.9918 9.43233C14.4777 9.70288 15.303 10.3326 15.6922 10.7298" stroke="#352A58" stroke-width="2" stroke-linecap="round"/>
</svg>
