<svg width="24" height="24" viewBox="0 0 24 24" fill="none" xmlns="http://www.w3.org/2000/svg">
<path d="M8.7707 5.59633L7.70048 6.28282C7.38551 6.48486 7.16778 6.80783 7.09864 7.17559C6.94135 8.01213 7.58303 8.78571 8.43423 8.78571H14.8595C15.7576 8.78571 16.3966 7.9127 16.1252 7.05663C16.0315 6.76114 15.8373 6.50775 15.5764 6.34038L14.399 5.58517C13.8818 5.25342 13.5691 4.6809 13.5691 4.06644C13.5691 3.33979 13.1328 2.68378 12.4626 2.4031L12.4072 2.37991C11.8291 2.13781 11.1759 2.1492 10.6066 2.41133C10.0041 2.68874 9.61806 3.29142 9.61806 3.95474V4.04609C9.61806 4.67343 9.29874 5.25762 8.7707 5.59633Z" stroke="#352A58" stroke-width="2"/>
<path d="M9.27463 8.40211L11.2855 8.84328C11.7556 8.9464 12.243 8.94021 12.7103 8.82517L14.3108 8.43114C15.6567 8.0998 16.8948 9.36702 16.6818 10.7366C16.4734 12.0761 16.3535 13.6176 16.5942 14.8374C16.7357 15.5544 17.0436 16.3723 17.3805 17.1268C18.0345 18.5916 17.716 20.3657 16.4427 21.3413L16.1388 21.5742C15.3551 22.1746 14.3953 22.5 13.4081 22.5H10.437C9.49493 22.5 8.5767 22.2037 7.81235 21.6529L7.37181 21.3355C6.03504 20.3723 5.68711 18.5441 6.35127 17.0363C6.67213 16.3079 6.95853 15.5267 7.08643 14.8374C7.31394 13.6113 7.16553 12.1708 6.91401 10.9051C6.63457 9.49884 7.87419 8.09487 9.27463 8.40211Z" stroke="#352A58" stroke-width="2"/>
<rect x="5.89795" y="7.88776" width="11.6735" height="3" rx="1.5" fill="white" stroke="#352A58" stroke-width="2"/>
</svg>
