<svg width="24" height="24" viewBox="0 0 24 24" fill="none" xmlns="http://www.w3.org/2000/svg">
<path d="M6.06753 6.6609L8.5623 6.83449L6.54499 11.2972C6.18377 12.0963 5.33516 12.5576 4.46812 12.4263L4.24745 12.3928C2.78138 12.1707 2.08507 10.4625 2.97803 9.27877L4.369 7.4348C4.76781 6.90611 5.40689 6.61493 6.06753 6.6609Z" stroke="#352A58" stroke-width="2"/>
<path d="M17.9327 6.6609L15.4379 6.83449L17.4553 11.2972C17.8165 12.0963 18.6651 12.5576 19.5321 12.4263L19.7528 12.3928C21.2189 12.1707 21.9152 10.4625 21.0222 9.27877L19.6312 7.4348C19.2324 6.90611 18.5934 6.61493 17.9327 6.6609Z" stroke="#352A58" stroke-width="2"/>
<path d="M6.32162 9.19967C6.91066 6.73702 9.11216 5 11.6443 5C14.1764 5 16.3779 6.73702 16.9669 9.19966L17.9098 13.1416C18.7075 16.4764 16.1794 19.6805 12.7505 19.6805H10.5381C7.10918 19.6805 4.58109 16.4764 5.37875 13.1416L6.32162 9.19967Z" fill="white" stroke="#352A58" stroke-width="2"/>
<path d="M11.6443 16.7444C12.9293 16.7444 14.0215 15.9189 14.4196 14.7693C14.5964 14.2585 14.1423 13.8083 13.6017 13.8083H9.68695C9.14643 13.8083 8.69228 14.2585 8.86912 14.7693C9.26714 15.9189 10.3593 16.7444 11.6443 16.7444Z" fill="#352A58"/>
<circle cx="9.68695" cy="10.8722" r="0.978697" fill="#352A58"/>
<circle cx="13.6017" cy="10.8722" r="0.978697" fill="#352A58"/>
<path d="M11.6443 14.2976V19.1911" stroke="#352A58" stroke-width="2"/>
</svg>
