<svg width="24" height="24" viewBox="0 0 24 24" fill="none" xmlns="http://www.w3.org/2000/svg">
<path d="M5.30914 7.72114L6.94914 14.0469C7.24621 15.1927 8.28025 15.9928 9.46394 15.9928H14.7217C15.9054 15.9928 16.9394 15.1927 17.2365 14.0469L18.8854 7.68671C19.1536 6.65246 18.7627 5.55746 17.8445 5.01109C16.4286 4.16856 14.2533 3.06773 12.464 3.00314C10.4581 2.93074 7.96379 4.1253 6.39015 5.02088C5.44622 5.55808 5.03657 6.66982 5.30914 7.72114Z" stroke="#352A58" stroke-width="2"/>
<path d="M7.45353 18.9588L5.96899 21" stroke="#352A58" stroke-width="2" stroke-linecap="round"/>
<path d="M16.1753 18.7732L17.8454 21.1856" stroke="#352A58" stroke-width="2" stroke-linecap="round"/>
<path d="M11.9072 14.6907C9.72684 14.6907 7.02662 12.889 5.83758 12.0088C5.44422 11.7176 4.94794 11.5918 4.46804 11.6878C3.80777 11.8199 3.29793 12.3464 3.18723 13.0106L3.12584 13.379C3.04442 13.8675 3.13152 14.3689 3.397 14.787C4.01098 15.7538 5.25346 17.5441 6.52577 18.4021C8.35022 19.6323 9.70685 20.0513 11.9072 20.0722C14.1769 20.0936 15.5923 19.6711 17.4742 18.4021C18.75 17.5418 19.9957 15.7441 20.608 14.7791C20.87 14.3661 20.9561 13.8708 20.8757 13.3883L20.8339 13.1373C20.7109 12.3993 20.138 11.818 19.4019 11.6841C18.8858 11.5903 18.3556 11.7301 17.9331 12.0411C16.7226 12.9323 14.0613 14.6907 11.9072 14.6907Z" fill="white" stroke="#352A58" stroke-width="2"/>
</svg>
