<svg width="24" height="24" viewBox="0 0 24 24" fill="none" xmlns="http://www.w3.org/2000/svg">
<path d="M5.59285 6.22449C5.41431 5.70186 5.69325 5.13345 6.21588 4.95491L8.73937 4.09285C9.262 3.91432 9.83041 4.19326 10.0089 4.71589L11.1843 8.15661L13.2114 14.0905L8.79535 15.5991L5.59285 6.22449Z" fill="white" stroke="#352A58" stroke-width="2" stroke-linecap="round" stroke-linejoin="round"/>
<path d="M11.6667 12.1666L14.0001 5.5L17.4837 2.01639C17.885 1.61506 18.5723 1.86682 18.6194 2.43243L19.0001 6.99998L17.5001 12.1666H11.6667Z" fill="white"/>
<path d="M14.0001 5.5L11.6667 12.1666H17.5001L19.0001 6.99998M14.0001 5.5L17.4837 2.01639C17.885 1.61506 18.5723 1.86682 18.6194 2.43243L19.0001 6.99998M14.0001 5.5L19.0001 6.99998" stroke="#352A58" stroke-width="2"/>
<path d="M6.74663 11.8333L18.2535 11.8333L17.5731 20.6789C17.4796 21.8946 16.4659 22.8333 15.2466 22.8333H9.75352C8.53427 22.8333 7.52057 21.8946 7.42706 20.6789L6.74663 11.8333Z" fill="white" stroke="#352A58" stroke-width="2"/>
</svg>
