<svg width="16" height="16" viewBox="0 0 16 16" fill="none" xmlns="http://www.w3.org/2000/svg">
<path d="M10.3283 4.32833C10.3283 3.04243 9.66663 1.33333 7.99996 1.33333C6.33329 1.33333 5.67162 3.04243 5.67162 4.32833M3.1058 7.52821L2.75655 10.5869C2.65725 11.6461 2.60759 12.1757 2.78335 12.5848C2.93775 12.9441 3.20831 13.2412 3.55168 13.4285C3.94256 13.6417 4.47449 13.6417 5.53835 13.6417H10.4616C11.5254 13.6417 12.0574 13.6417 12.4482 13.4285C12.7916 13.2412 13.0622 12.9441 13.2166 12.5848C13.3923 12.1757 13.3427 11.6461 13.2434 10.5869L12.8941 7.52821C12.8103 6.63377 12.7683 6.18655 12.5672 5.84843C12.39 5.55065 12.1283 5.3123 11.8153 5.16371C11.4599 4.995 11.0107 4.995 10.1123 4.995L5.8876 4.995C4.98924 4.995 4.54006 4.995 4.18464 5.16371C3.87162 5.3123 3.60989 5.55065 3.43273 5.84843C3.23158 6.18654 3.18965 6.63377 3.1058 7.52821Z" stroke="white" stroke-width="2" stroke-linecap="round" stroke-linejoin="round"/>
</svg>
