<svg width="16" height="16" viewBox="0 0 16 16" fill="none" xmlns="http://www.w3.org/2000/svg">
<path fill-rule="evenodd" clip-rule="evenodd" d="M7.60346 12.5965L14.0721 6.47204C15.1473 5.45404 15.0642 3.65196 13.8887 2.49639C12.7409 1.36803 10.9904 1.2905 9.97862 2.3232L3.68633 8.74575C3.68633 8.74575 5.08021 9.30031 6.05978 10.2633C7.03935 11.2262 7.60346 12.5965 7.60346 12.5965Z" fill="white" stroke="#A6A2B3" stroke-width="2" stroke-linecap="round" stroke-linejoin="round"/>
<path d="M3.18031 13.7392L7.59981 12.6016C7.59981 12.6016 7.03696 11.2309 6.05828 10.267C5.0796 9.30316 3.68623 8.74734 3.68623 8.74734L2.52429 13.0775C2.42307 13.4547 2.80172 13.8366 3.18031 13.7392Z" fill="white"/>
<path d="M3.18031 13.7392L7.59981 12.6016C7.59981 12.6016 7.03696 11.2309 6.05828 10.267C5.0796 9.30316 3.68623 8.74734 3.68623 8.74734L2.52429 13.0775C2.42307 13.4547 2.80172 13.8366 3.18031 13.7392Z" stroke="#A6A2B3" stroke-width="2" stroke-linecap="round" stroke-linejoin="round"/>
</svg>
