<svg width="24" height="38" viewBox="0 0 24 38" fill="none" xmlns="http://www.w3.org/2000/svg">
<path fill-rule="evenodd" clip-rule="evenodd" d="M24 12V17.0833C24 21.2778 22.9028 24.4167 20.7083 26.5C20.5008 26.6946 20.2886 26.88 20.0716 27.0564C18.2211 28.5607 16.3427 30.2011 15.5349 32.4449L14.3505 35.7348C13.5887 37.8509 10.596 37.8509 9.83425 35.7348L8.60602 32.3231C7.80229 30.0905 5.93357 28.464 4.09175 26.968C3.84524 26.7677 3.60633 26.5562 3.375 26.3333C1.125 24.1389 0 20.9583 0 16.7917V12C0 5.37259 5.37258 0 12 0C18.6274 0 24 5.37258 24 12Z" fill="#905FF4"/>
<path d="M15.3973 11.4166C15.3973 11.1957 15.5764 11.0166 15.7973 11.0166H17.2C17.421 11.0166 17.6 11.1957 17.6 11.4166V18.4194C17.6 20.237 17.1246 21.5972 16.1737 22.4999C15.2107 23.4027 14.013 23.8541 12.5806 23.8541C10.9556 23.8541 9.64958 23.3786 8.66254 22.4277C7.68754 21.4768 7.20004 20.0985 7.20004 18.293V11.4166C7.20004 11.1957 7.37913 11.0166 7.60004 11.0166H9.02088C9.24179 11.0166 9.42088 11.1957 9.42088 11.4166V17.8235C9.42088 19.0754 9.68569 20.0504 10.2153 20.7485C10.757 21.4347 11.5454 21.7777 12.5806 21.7777C14.4584 21.7777 15.3973 20.5078 15.3973 17.968V11.4166Z" fill="white" stroke="white" stroke-width="0.64"/>
<path d="M10.7053 8.19748C10.7053 8.29963 10.6225 8.38245 10.5204 8.38245L9.73952 8.38245C9.51861 8.38245 9.33952 8.20336 9.33952 7.98245L9.33952 7.93694C9.33952 6.88782 9.63433 6.10271 10.2239 5.58162C10.821 5.06054 11.5636 4.8 12.4518 4.8C13.4593 4.8 14.2691 5.07443 14.8811 5.62331C15.4857 6.17219 15.7879 6.96772 15.7879 8.00989C15.7879 8.21565 15.6211 8.38245 15.4154 8.38245L14.5125 8.38245C14.4564 8.38245 14.4109 8.33696 14.4109 8.28086C14.4109 7.55828 14.2467 6.99551 13.9183 6.59253C13.5825 6.19651 13.0936 5.9985 12.4518 5.9985C11.2875 5.9985 10.7053 6.73149 10.7053 8.19748Z" fill="white" stroke="white" stroke-width="0.8"/>
</svg>
