<svg width="19" height="16" viewBox="0 0 19 16" fill="none" xmlns="http://www.w3.org/2000/svg">
<path d="M8.17513 1.20359C8.57233 0.624015 9.42766 0.624014 9.82487 1.20359L11.6203 3.82339C11.7504 4.01312 11.9418 4.15223 12.1625 4.21727L15.2089 5.11529C15.8828 5.31396 16.1471 6.12743 15.7187 6.68429L13.7819 9.20145C13.6417 9.38375 13.5685 9.60882 13.5748 9.83875L13.6622 13.0136C13.6815 13.7159 12.9895 14.2187 12.3275 13.9833L9.33505 12.9191C9.11833 12.8421 8.88167 12.8421 8.66495 12.9191L5.6725 13.9833C5.01049 14.2187 4.31852 13.7159 4.33783 13.0136L4.42515 9.83875C4.43148 9.60882 4.35834 9.38375 4.21808 9.20145L2.28133 6.68429C1.85287 6.12743 2.11718 5.31396 2.79113 5.11529L5.83754 4.21727C6.05817 4.15223 6.24963 4.01312 6.37966 3.82339L8.17513 1.20359Z" fill="#905FF4"/>
</svg>
