<svg width="31" height="31" viewBox="0 0 31 31" fill="none" xmlns="http://www.w3.org/2000/svg">
<path d="M20.5575 6.35718H12.4425L10.4285 10.0054C10.0301 10.039 9.634 10.0734 9.24034 10.1074C7.55702 10.2527 6.17133 11.5497 5.92471 13.2212C5.70129 14.7354 5.5 16.2949 5.5 17.8877C5.5 19.4804 5.70129 21.0399 5.92471 22.5542C6.17133 24.2256 7.55702 25.5226 9.24034 25.668C11.6555 25.8766 14.0739 26.0844 16.5 26.0844C18.9261 26.0844 21.3445 25.8766 23.7597 25.668C25.443 25.5226 26.8287 24.2256 27.0753 22.5542C27.2987 21.0399 27.5 19.4804 27.5 17.8877C27.5 16.2949 27.2987 14.7354 27.0753 13.2212C26.8287 11.5497 25.443 10.2527 23.7597 10.1074C23.3636 10.0732 22.9676 10.0388 22.5715 10.0054L20.5575 6.35718Z" stroke="#A6A2B3" stroke-width="3" stroke-linejoin="round"/>
<path d="M16.5 21.3286C18.6871 21.3286 20.46 19.5556 20.46 17.3686C20.46 15.1815 18.6871 13.4086 16.5 13.4086C14.313 13.4086 12.54 15.1815 12.54 17.3686C12.54 19.5556 14.313 21.3286 16.5 21.3286Z" fill="white" stroke="#A6A2B3" stroke-width="3" stroke-linecap="round" stroke-linejoin="round"/>
</svg>
