<svg width="24" height="24" viewBox="0 0 24 24" fill="none" xmlns="http://www.w3.org/2000/svg">
<path d="M9.11436 4H6.9277C6.38291 4 5.20142 5.27746 4.84703 5.58435C4.32762 6.03413 3.84928 6.50001 3.38869 6.95446C2.92497 7.412 2.8624 8.10562 3.27554 8.59818C3.42981 8.78212 3.59577 8.96134 3.78475 9.125C3.97374 9.28865 4.1807 9.43235 4.39311 9.56595C4.96192 9.92371 5.76291 9.86953 6.29128 9.46796C6.46774 9.33385 6.74599 9.44386 6.74334 9.64716C6.7068 12.448 6.70268 15.7271 6.81856 18.0871C6.84264 18.5776 7.19497 19.0113 7.73077 19.1718C10.627 20.0392 13.3558 19.9429 16.218 19.1584C16.7796 19.0045 17.1586 18.559 17.1832 18.0493C17.2972 15.6923 17.293 12.4334 17.2566 9.6476C17.254 9.44466 17.5317 9.33483 17.7079 9.46871C18.2363 9.87027 19.0373 9.92441 19.6061 9.56664C19.8186 9.43295 20.0258 9.28915 20.2149 9.12538C20.404 8.96162 20.57 8.78227 20.7244 8.59821C21.1376 8.10564 21.0751 7.41201 20.6113 6.95445C20.1508 6.5 19.6724 6.03413 19.153 5.58435C18.8024 5.28068 17.6235 4 17.0722 4H14.5608C14.2936 5.08997 13.1759 5.90774 11.8376 5.90774C10.4993 5.90774 9.38152 5.08997 9.11436 4Z" stroke="#352A58" stroke-width="2" stroke-linejoin="round"/>
</svg>
