<svg width="89" height="19" viewBox="0 0 89 19" fill="none" xmlns="http://www.w3.org/2000/svg">
<g clip-path="url(#clip0_12_4022)">
<path d="M87.016 7.99487L85.3876 12.1417H85.3388L83.6399 7.99487H82.1038L84.6495 13.7918L83.1948 17.0159H84.6875L88.6118 7.99487H87.016ZM75.509 4.55363H74.0869V14.1175H75.509V4.55363ZM70.1572 4.55363H66.7376V14.1175H68.1706V10.4971H70.1626C70.5642 10.5109 70.9645 10.4447 71.3404 10.3024C71.7162 10.1602 72.0601 9.9447 72.3519 9.66848C72.6438 9.39226 72.8779 9.06081 73.0406 8.69338C73.2034 8.32595 73.2915 7.92985 73.2999 7.52808C73.2915 7.1256 73.2032 6.7288 73.0402 6.3607C72.8772 5.99261 72.6427 5.66057 72.3503 5.38384C72.058 5.10712 71.7135 4.89123 71.337 4.74871C70.9605 4.60619 70.5595 4.53988 70.1572 4.55363ZM70.1951 9.16186H68.1706V5.90516H70.2006C70.6324 5.90516 71.0466 6.07672 71.352 6.38209C71.6574 6.68747 71.8289 7.10164 71.8289 7.53351C71.8289 7.96537 71.6574 8.37955 71.352 8.68493C71.0466 8.9903 70.6324 9.16186 70.2006 9.16186H70.1951ZM79.0154 7.78862C78.4945 7.75873 77.9762 7.88147 77.524 8.14178C77.0718 8.40209 76.7054 8.78867 76.4697 9.25413L77.7398 9.79692C77.8657 9.56679 78.056 9.37844 78.2874 9.25501C78.5189 9.13158 78.7813 9.07845 79.0425 9.10215C79.2219 9.08418 79.403 9.10184 79.5755 9.15412C79.748 9.20639 79.9085 9.29224 80.0477 9.40674C80.1869 9.52125 80.3022 9.66214 80.3867 9.82131C80.4713 9.98049 80.5236 10.1548 80.5406 10.3343V10.432C80.0855 10.1858 79.5762 10.0571 79.0588 10.0575C77.6964 10.0575 76.3069 10.8065 76.3069 12.2286C76.3069 13.5096 77.4196 14.3346 78.6788 14.3346C79.0372 14.3573 79.395 14.2825 79.7142 14.1181C80.0334 13.9538 80.3021 13.7059 80.4917 13.401H80.546V14.1392H81.9355V10.4591C81.9355 8.7602 80.6654 7.81576 79.0262 7.81576L79.0154 7.78862ZM78.8471 13.0319C78.3803 13.0319 77.729 12.7931 77.729 12.2177C77.729 11.4795 78.5377 11.1973 79.2433 11.1973C79.6984 11.1851 80.1484 11.2957 80.546 11.5175C80.4936 11.9326 80.2926 12.3147 79.9803 12.5931C79.668 12.8714 79.2655 13.0273 78.8471 13.0319ZM27.3804 14.3237C26.0297 14.3282 24.7317 13.8003 23.7676 12.8544C22.8034 11.9086 22.2508 10.6209 22.2294 9.27042C22.2508 7.91994 22.8034 6.63227 23.7676 5.68641C24.7317 4.74054 26.0297 4.21265 27.3804 4.2171C28.024 4.20638 28.6632 4.32425 29.2607 4.56378C29.8581 4.80332 30.4017 5.1597 30.8596 5.61205L29.8772 6.58364C29.2108 5.9307 28.3133 5.56778 27.3804 5.57406C26.4058 5.57406 25.4711 5.96121 24.782 6.65034C24.0929 7.33947 23.7057 8.27413 23.7057 9.2487C23.7057 10.2233 24.0929 11.1579 24.782 11.8471C25.4711 12.5362 26.4058 12.9233 27.3804 12.9233C27.8547 12.9428 28.3278 12.8625 28.7691 12.6877C29.2104 12.5129 29.6101 12.2474 29.9423 11.9083C30.3841 11.4321 30.6502 10.8194 30.6968 10.1714H27.3804V8.83076H32.0483C32.0992 9.11554 32.1229 9.40452 32.1189 9.69379C32.1658 10.8953 31.7344 12.0664 30.9193 12.9505C30.4592 13.4153 29.9061 13.7779 29.2963 14.0145C28.6865 14.2512 28.0337 14.3565 27.3804 14.3237ZM39.3379 11.067C39.3557 11.5012 39.2856 11.9345 39.1318 12.3409C38.9779 12.7473 38.7435 13.1183 38.4426 13.4318C38.1417 13.7453 37.7805 13.9948 37.3808 14.1652C36.9811 14.3356 36.551 14.4234 36.1165 14.4234C35.682 14.4234 35.2519 14.3356 34.8522 14.1652C34.4524 13.9948 34.0913 13.7453 33.7904 13.4318C33.4895 13.1183 33.2551 12.7473 33.1012 12.3409C32.9474 11.9345 32.8772 11.5012 32.8951 11.067C32.8772 10.6329 32.9474 10.1996 33.1012 9.79319C33.2551 9.3868 33.4895 9.01571 33.7904 8.70221C34.0913 8.38871 34.4524 8.13927 34.8522 7.96887C35.2519 7.79847 35.682 7.71063 36.1165 7.71063C36.551 7.71063 36.9811 7.79847 37.3808 7.96887C37.7805 8.13927 38.1417 8.38871 38.4426 8.70221C38.7435 9.01571 38.9779 9.3868 39.1318 9.79319C39.2856 10.1996 39.3557 10.6329 39.3379 11.067ZM37.9267 11.067C37.9506 10.8149 37.9216 10.5605 37.8415 10.3202C37.7614 10.0799 37.6321 9.85904 37.4616 9.67168C37.2912 9.48431 37.0835 9.33461 36.8519 9.23217C36.6202 9.12974 36.3698 9.07683 36.1165 9.07683C35.8632 9.07683 35.6127 9.12974 35.3811 9.23217C35.1494 9.33461 34.9418 9.48431 34.7713 9.67168C34.6009 9.85904 34.4715 10.0799 34.3914 10.3202C34.3114 10.5605 34.2824 10.8149 34.3063 11.067C34.2824 11.3192 34.3114 11.5735 34.3914 11.8138C34.4715 12.0541 34.6009 12.275 34.7713 12.4624C34.9418 12.6497 35.1494 12.7994 35.3811 12.9019C35.6127 13.0043 35.8632 13.0572 36.1165 13.0572C36.3698 13.0572 36.6202 13.0043 36.8519 12.9019C37.0835 12.7994 37.2912 12.6497 37.4616 12.4624C37.6321 12.275 37.7614 12.0541 37.8415 11.8138C37.9216 11.5735 37.9506 11.3192 37.9267 11.067ZM46.5569 11.067C46.5569 11.9207 46.2178 12.7394 45.6142 13.343C45.0106 13.9466 44.1919 14.2857 43.3382 14.2857C42.4846 14.2857 41.6659 13.9466 41.0622 13.343C40.4586 12.7394 40.1195 11.9207 40.1195 11.067C40.1195 10.2134 40.4586 9.39468 41.0622 8.79106C41.6659 8.18744 42.4846 7.84832 43.3382 7.84832C44.1919 7.84832 45.0106 8.18744 45.6142 8.79106C46.2178 9.39468 46.5569 10.2134 46.5569 11.067ZM45.1511 11.067C45.1751 10.8149 45.1461 10.5605 45.066 10.3202C44.9859 10.0799 44.8565 9.85904 44.6861 9.67168C44.5157 9.48431 44.308 9.33461 44.0763 9.23217C43.8447 9.12974 43.5942 9.07683 43.3409 9.07683C43.0877 9.07683 42.8372 9.12974 42.6055 9.23217C42.3739 9.33461 42.1662 9.48431 41.9958 9.67168C41.8254 9.85904 41.696 10.0799 41.6159 10.3202C41.5358 10.5605 41.5068 10.8149 41.5307 11.067C41.5068 11.3192 41.5358 11.5735 41.6159 11.8138C41.696 12.0541 41.8254 12.275 41.9958 12.4624C42.1662 12.6497 42.3739 12.7994 42.6055 12.9019C42.8372 13.0043 43.0877 13.0572 43.3409 13.0572C43.5942 13.0572 43.8447 13.0043 44.0763 12.9019C44.308 12.7994 44.5157 12.6497 44.6861 12.4624C44.8565 12.275 44.9859 12.0541 45.066 11.8138C45.1461 11.5735 45.1751 11.3192 45.1511 11.067ZM53.6023 8.01116V13.8569C53.6023 16.256 52.1747 17.2439 50.4921 17.2439C49.8753 17.2491 49.2708 17.0714 48.755 16.7333C48.2391 16.3952 47.835 15.9118 47.5936 15.3442L48.8258 14.8014C48.9536 15.1328 49.1762 15.4191 49.4658 15.6248C49.7554 15.8304 50.0991 15.9461 50.4541 15.9575C51.5397 15.9575 52.2019 15.2899 52.2019 14.0469V13.5801H52.1476C51.9347 13.8177 51.6734 14.0069 51.3813 14.1352C51.0892 14.2635 50.7731 14.3277 50.4541 14.3237C49.5904 14.3237 48.762 13.9806 48.1513 13.3699C47.5405 12.7591 47.1974 11.9308 47.1974 11.067C47.1974 10.2033 47.5405 9.37494 48.1513 8.76419C48.762 8.15344 49.5904 7.81033 50.4541 7.81033C50.7752 7.80326 51.0941 7.86444 51.3898 7.98982C51.6855 8.1152 51.9512 8.30193 52.1693 8.53766H52.2236V7.99487H53.6023V8.01116ZM52.3376 11.0833C52.3575 10.8377 52.3279 10.5905 52.2505 10.3565C52.1731 10.1225 52.0494 9.90649 51.8869 9.7212C51.7244 9.53591 51.5263 9.38515 51.3044 9.27788C51.0826 9.17061 50.8414 9.109 50.5952 9.09672C50.3443 9.10504 50.0975 9.16331 49.8693 9.26813C49.6411 9.37294 49.4361 9.5222 49.2663 9.70718C49.0965 9.89215 48.9653 10.1091 48.8803 10.3454C48.7954 10.5817 48.7584 10.8326 48.7715 11.0833C48.7598 11.3324 48.7981 11.5813 48.8839 11.8154C48.9697 12.0494 49.1014 12.264 49.2713 12.4466C49.4412 12.6291 49.6458 12.7758 49.8731 12.8782C50.1005 12.9806 50.346 13.0365 50.5952 13.0428C50.8399 13.0333 51.0802 12.9745 51.3016 12.8699C51.523 12.7653 51.721 12.617 51.8837 12.4341C52.0464 12.2511 52.1704 12.0371 52.2484 11.805C52.3264 11.5729 52.3568 11.3274 52.3376 11.0833ZM56.1153 4.56448V14.1229H54.6824V4.56448H56.1153ZM61.7603 12.1417L62.8784 12.8799C62.5799 13.3254 62.176 13.6903 61.7025 13.9422C61.2291 14.1941 60.7008 14.3251 60.1645 14.3237C59.7379 14.3298 59.3145 14.2493 58.9199 14.087C58.5254 13.9248 58.1678 13.6841 57.8689 13.3797C57.5701 13.0752 57.3361 12.7133 57.1811 12.3158C57.0262 11.9183 56.9535 11.4934 56.9675 11.067C56.904 10.334 57.1124 9.60315 57.5531 9.0139C57.9938 8.42465 58.6359 8.01816 59.357 7.87192C60.0781 7.72568 60.8279 7.84992 61.4633 8.22095C62.0987 8.59198 62.5754 9.18386 62.8024 9.88376L62.949 10.2583L58.6067 12.0549C58.742 12.359 58.9653 12.6157 59.2478 12.7917C59.5303 12.9678 59.859 13.0552 60.1916 13.0428C60.508 13.0378 60.818 12.9525 61.0924 12.7949C61.3668 12.6373 61.5966 12.4125 61.7603 12.1417ZM58.3353 10.9693L61.2555 9.76435C61.1425 9.54314 60.967 9.35993 60.7509 9.2374C60.5348 9.11488 60.2875 9.05842 60.0397 9.07501C59.8027 9.08538 59.5701 9.14286 59.3556 9.2441C59.141 9.34534 58.9488 9.48831 58.7901 9.66467C58.6315 9.84102 58.5095 10.0472 58.4314 10.2712C58.3534 10.4952 58.3207 10.7326 58.3353 10.9693Z" fill="white"/>
<path d="M7.86741 8.98267L0.583252 16.6142C0.665043 16.9041 0.812034 17.1714 1.01299 17.3958C1.21394 17.6202 1.46354 17.7957 1.7427 17.9088C2.02185 18.0219 2.32318 18.0697 2.62365 18.0486C2.92411 18.0274 3.21576 17.9378 3.47629 17.7866L11.6723 13.1187L7.86741 8.98267Z" fill="#EA4335"/>
<path d="M15.2329 7.68541L11.6886 5.6554L7.6991 9.15635L11.7048 13.1078L15.2221 11.0995C15.5337 10.9364 15.7947 10.691 15.9768 10.3901C16.1589 10.0892 16.2552 9.74419 16.2552 9.39246C16.2552 9.04073 16.1589 8.69571 15.9768 8.3948C15.7947 8.09388 15.5337 7.84855 15.2221 7.68541H15.2329Z" fill="#FBBC04"/>
<path d="M0.583222 2.13281C0.539191 2.29559 0.517282 2.46355 0.518088 2.63217V16.1149C0.518528 16.2835 0.540415 16.4513 0.583222 16.6143L8.11706 9.17814L0.583222 2.13281Z" fill="#4285F4"/>
<path d="M7.92168 9.3735L11.6886 5.65544L3.50343 0.965788C3.1955 0.785443 2.84527 0.689928 2.48842 0.688969C2.05744 0.688115 1.638 0.828208 1.29404 1.08789C0.950082 1.34758 0.700469 1.71261 0.583252 2.12735L7.92168 9.3735Z" fill="#34A853"/>
</g>
<defs>
<clipPath id="clip0_12_4022">
<rect x="0.518066" y="0.688965" width="88.0829" height="17.3691" rx="8.68454" fill="white"/>
</clipPath>
</defs>
</svg>
