<svg width="153" height="30" viewBox="0 0 153 30" fill="none" xmlns="http://www.w3.org/2000/svg">
<path d="M16.536 29H13.12V20.628H4.16V29H0.716003V9.40004H4.16V17.408H13.12V9.40004H16.536V29Z" fill="#352A58"/>
<path d="M34.3941 9.40004H37.8101V20.88C37.8101 23.6987 37.0728 25.808 35.5981 27.208C34.1048 28.608 32.2474 29.308 30.0261 29.308C27.5061 29.308 25.4808 28.5707 23.9501 27.096C22.4381 25.6214 21.6821 23.484 21.6821 20.684V9.40004H25.1261V19.956C25.1261 21.8974 25.5368 23.4094 26.3581 24.492C27.1981 25.556 28.4208 26.088 30.0261 26.088C32.9381 26.088 34.3941 24.1187 34.3941 20.18V9.40004Z" fill="#905FF4"/>
<path d="M42.9894 28.972V9.45604C45.0054 9.36271 46.8908 9.31604 48.6454 9.31604C50.8108 9.31604 52.4254 9.74537 53.4894 10.604C54.5534 11.4627 55.0854 12.648 55.0854 14.16C55.0854 16.2694 54.1521 17.7534 52.2854 18.612V18.668C53.3494 18.948 54.1894 19.48 54.8054 20.264C55.4214 21.0294 55.7294 22.0187 55.7294 23.232C55.7294 25.136 55.0761 26.592 53.7694 27.6C52.4628 28.608 50.6894 29.112 48.4494 29.112C46.2094 29.112 44.3894 29.0654 42.9894 28.972ZM48.8694 20.572H46.4334V25.752C47.3108 25.8454 48.0668 25.892 48.7014 25.892C51.0908 25.892 52.2854 24.9494 52.2854 23.064C52.2854 22.2427 51.9868 21.6267 51.3894 21.216C50.7921 20.7867 49.9521 20.572 48.8694 20.572ZM48.5894 12.536C47.7681 12.536 47.0494 12.564 46.4334 12.62V17.576H48.7574C49.6348 17.576 50.3348 17.352 50.8574 16.904C51.3988 16.456 51.6694 15.812 51.6694 14.972C51.6694 14.188 51.3988 13.5907 50.8574 13.18C50.3161 12.7507 49.5601 12.536 48.5894 12.536Z" fill="#352A58"/>
<path d="M71.8907 29H60.2707V9.40004H71.6107V12.62H63.7147V17.492H70.7707V20.712H63.7147V25.78H71.8907V29Z" fill="#352A58"/>
<path d="M79.8202 29H76.3762V9.40004H79.8482L86.5402 18.556L92.9242 9.40004H96.1722V29H92.7562V14.832L86.5682 23.54H86.0642L79.8202 14.916V29Z" fill="#352A58"/>
<path d="M102.566 29H99.0944L107.382 9.34404H110.406L118.694 29H115.026L112.982 23.988H104.61L102.566 29ZM111.666 20.768L108.81 13.796L105.926 20.768H111.666Z" fill="#352A58"/>
<path d="M125.074 21.664V29H121.63V9.40004C122.601 9.40004 123.655 9.39071 124.794 9.37204C125.933 9.35337 126.866 9.34404 127.594 9.34404C132.335 9.34404 134.706 11.36 134.706 15.392C134.706 16.8854 134.323 18.1174 133.558 19.088C132.793 20.0214 131.915 20.656 130.926 20.992L137.058 29H132.886L127.482 21.664H125.074ZM127.426 12.564C127.333 12.564 127.183 12.5734 126.978 12.592C126.773 12.592 126.483 12.6014 126.11 12.62C125.737 12.62 125.391 12.62 125.074 12.62V18.444H127.314C128.415 18.444 129.311 18.1734 130.002 17.632C130.711 17.0907 131.066 16.3534 131.066 15.42C131.066 13.516 129.853 12.564 127.426 12.564Z" fill="#352A58"/>
<path d="M142.968 12.62H136.612V9.40004H152.768V12.62H146.412V29H142.968V12.62Z" fill="#352A58"/>
<path d="M27.1181 6.85554L27.4181 6.85554L27.4181 6.55554L27.4181 6.26871C27.4181 5.16367 27.6388 4.39034 28.0301 3.89769C28.4109 3.41823 28.9906 3.15858 29.8264 3.15858C30.755 3.15858 31.4194 3.44166 31.87 3.9716C32.3202 4.52537 32.5646 5.32136 32.5646 6.398L32.5646 6.55554L32.5646 6.85554L32.8646 6.85554L35 6.85554L35.3 6.85554L35.3 6.55554L35.3 5.97779C35.3 4.30193 34.8119 2.97752 33.7954 2.05465L33.7941 2.05342C32.7782 1.14235 31.4454 0.699987 29.8264 0.699987C28.3859 0.699987 27.1615 1.12448 26.1743 1.98608L26.1729 1.98732C25.1745 2.86969 24.7 4.18193 24.7 5.86466L24.7 6.55554L24.7 6.85554L25 6.85554L27.1181 6.85554Z" fill="#905FF4" stroke="#905FF4" stroke-width="0.6"/>
</svg>
