<svg width="30" height="47" viewBox="0 0 30 47" fill="none" xmlns="http://www.w3.org/2000/svg">
<path fill-rule="evenodd" clip-rule="evenodd" d="M30 15V21.3542C30 26.5972 28.6285 30.5208 25.8854 33.125C25.626 33.3682 25.3607 33.6001 25.0894 33.8206C22.7763 35.7009 20.4282 37.7514 19.4185 40.5562L17.9381 44.6684C16.9859 47.3136 13.245 47.3135 12.2928 44.6684L10.7575 40.4039C9.75288 37.6131 7.41698 35.58 5.1147 33.71C4.80656 33.4597 4.50791 33.1952 4.21875 32.9167C1.40625 30.1736 0 26.1979 0 20.9896V15C0 6.71573 6.71573 0 15 0C23.2843 0 30 6.71573 30 15Z" fill="#FF3D9A"/>
<path d="M19.2465 14.2708C19.2465 13.9946 19.4704 13.7708 19.7465 13.7708H21.5C21.7761 13.7708 22 13.9946 22 14.2708V23.0242C22 25.2962 21.4057 26.9964 20.217 28.1249C19.0133 29.2534 17.5162 29.8176 15.7257 29.8176C13.6944 29.8176 12.0619 29.2233 10.8281 28.0346C9.60938 26.846 9 25.1232 9 22.8662V14.2708C9 13.9946 9.22386 13.7708 9.5 13.7708H11.276C11.5522 13.7708 11.776 13.9946 11.776 14.2708V22.2794C11.776 23.8442 12.1071 25.063 12.7691 25.9357C13.4462 26.7933 14.4317 27.2221 15.7257 27.2221C18.0729 27.2221 19.2465 25.6348 19.2465 22.46V14.2708Z" fill="white" stroke="white" stroke-width="0.8"/>
<path d="M13.3816 10.2467C13.3816 10.3744 13.2781 10.4779 13.1504 10.4779L12.1743 10.4779C11.8982 10.4779 11.6743 10.254 11.6743 9.9779L11.6743 9.92102C11.6743 8.60962 12.0429 7.62824 12.7799 6.97688C13.5262 6.32552 14.4545 5.99984 15.5647 5.99984C16.8241 5.99984 17.8364 6.34289 18.6014 7.02899C19.357 7.71509 19.7349 8.70949 19.7349 10.0122C19.7349 10.2694 19.5264 10.4779 19.2692 10.4779L18.1406 10.4779C18.0705 10.4779 18.0136 10.4211 18.0136 10.3509C18.0136 9.4477 17.8084 8.74423 17.3979 8.24052C16.9781 7.74548 16.367 7.49797 15.5647 7.49797C14.1093 7.49797 13.3816 8.41421 13.3816 10.2467Z" fill="white" stroke="white"/>
</svg>
