<svg width="60" height="18" viewBox="0 0 60 18" fill="none" xmlns="http://www.w3.org/2000/svg">
<path d="M4.6499 1.94998H9.5999C10.0499 1.94998 11.3999 1.79998 11.9999 3.89998C12.4499 5.24998 13.0499 7.34998 13.9499 10.5H14.2499C15.1499 7.19998 15.8999 4.94998 16.1999 3.89998C16.7999 1.79998 18.2999 1.94998 18.8999 1.94998H23.5499V16.35H18.7499V7.79998H18.4499L15.8999 16.35H12.2999L9.7499 7.79998H9.2999V16.35H4.6499M25.4999 1.94998H30.2999V10.5H30.7499L33.8999 3.44998C34.4999 2.09998 35.8499 1.94998 35.8499 1.94998H40.3499V16.35H35.5499V7.79998H35.2499L32.0999 14.85C31.4999 16.2 29.9999 16.35 29.9999 16.35H25.4999M46.7999 12V16.35H42.2999V8.84998H56.9999C56.3999 10.65 54.2999 12 51.8999 12" fill="#0F754E"/>
<path d="M57.3 7.95001C57.9 5.25001 56.1 1.95001 52.2 1.95001H42C42.3 5.10001 45 7.95001 47.85 7.95001" fill="url(#paint0_linear_2042_9022)"/>
<defs>
<linearGradient id="paint0_linear_2042_9022" x1="55.5" y1="1.22786e-05" x2="43.5" y2="1.22786e-05" gradientUnits="userSpaceOnUse">
<stop stop-color="#1F5CD7"/>
<stop offset="1" stop-color="#02AEFF"/>
</linearGradient>
</defs>
</svg>
