<svg width="30" height="47" viewBox="0 0 30 47" fill="none" xmlns="http://www.w3.org/2000/svg">
<path fill-rule="evenodd" clip-rule="evenodd" d="M30 15V21.3542C30 26.5972 28.6285 30.5208 25.8854 33.125C25.626 33.3682 25.3607 33.6001 25.0894 33.8206C22.7763 35.7009 20.4282 37.7514 19.4185 40.5562L17.9381 44.6684C16.9859 47.3136 13.245 47.3135 12.2928 44.6684L10.7575 40.4039C9.75288 37.6131 7.41698 35.58 5.1147 33.71C4.80656 33.4597 4.50791 33.1952 4.21875 32.9167C1.40625 30.1736 0 26.1979 0 20.9896V15C0 6.71573 6.71573 0 15 0C23.2843 0 30 6.71573 30 15Z" fill="#FF3D9A"/>
<path d="M19.2464 14.2708C19.2464 13.9946 19.4703 13.7708 19.7464 13.7708H21.4999C21.776 13.7708 21.9999 13.9946 21.9999 14.2708V23.0242C21.9999 25.2962 21.4056 26.9964 20.2169 28.1249C19.0132 29.2534 17.5161 29.8176 15.7256 29.8176C13.6943 29.8176 12.0618 29.2233 10.828 28.0346C9.60925 26.846 8.99988 25.1232 8.99988 22.8662V14.2708C8.99988 13.9946 9.22374 13.7708 9.49988 13.7708H11.2759C11.5521 13.7708 11.7759 13.9946 11.7759 14.2708V22.2794C11.7759 23.8442 12.1069 25.063 12.769 25.9357C13.4461 26.7933 14.4316 27.2221 15.7256 27.2221C18.0728 27.2221 19.2464 25.6348 19.2464 22.46V14.2708Z" fill="white" stroke="white" stroke-width="0.8"/>
<path d="M13.3815 10.2467C13.3815 10.3744 13.278 10.4779 13.1503 10.4779L12.1742 10.4779C11.8981 10.4779 11.6742 10.254 11.6742 9.9779L11.6742 9.92102C11.6742 8.60962 12.0427 7.62824 12.7797 6.97688C13.5261 6.32552 14.4544 5.99984 15.5645 5.99984C16.824 5.99984 17.8362 6.34289 18.6012 7.02899C19.3569 7.71509 19.7347 8.70949 19.7347 10.0122C19.7347 10.2694 19.5262 10.4779 19.269 10.4779L18.1405 10.4779C18.0703 10.4779 18.0135 10.4211 18.0135 10.3509C18.0135 9.4477 17.8082 8.74423 17.3978 8.24052C16.9779 7.74548 16.3669 7.49797 15.5645 7.49797C14.1092 7.49797 13.3815 8.41421 13.3815 10.2467Z" fill="white" stroke="white"/>
</svg>
