<svg width="60" height="24" viewBox="0 0 60 24" fill="none" xmlns="http://www.w3.org/2000/svg">
<path d="M60.0001 7.87127V18.579H56.1766V11.0677H52.4951V18.579H48.6716V7.87054H60.0001V7.87127Z" fill="black"/>
<path fill-rule="evenodd" clip-rule="evenodd" d="M40.8192 18.9618C44.2419 18.9618 46.7836 16.8632 46.7836 13.6817C46.7836 10.6024 44.9084 8.60305 41.7743 8.60305C40.3279 8.60305 39.1344 9.1122 38.2355 9.99069C38.4501 8.17494 39.9855 6.84934 41.6761 6.84934C42.0663 6.84934 45.0036 6.84313 45.0036 6.84313L46.6646 3.66455C46.6646 3.66455 42.9769 3.7485 41.2626 3.7485C37.3457 3.81675 34.7 7.3771 34.7 11.7013C34.7 16.7391 37.2803 18.9618 40.8192 18.9618ZM40.84 11.4185C42.1108 11.4185 42.9919 12.2536 42.9919 13.6813C42.9919 14.9664 42.209 16.0252 40.84 16.0281C39.5304 16.0281 38.6494 15.0471 38.6494 13.7032C38.6494 12.2751 39.5304 11.4185 40.84 11.4185Z" fill="black"/>
<path d="M31.5878 14.9942C31.5878 14.9942 30.6848 15.5147 29.3362 15.6132C27.7858 15.6592 26.4044 14.68 26.4044 12.9401C26.4044 11.243 27.6234 10.2703 29.2972 10.2703C30.3235 10.2703 31.6812 10.9816 31.6812 10.9816C31.6812 10.9816 32.6747 9.15858 33.1893 8.24687C32.2469 7.53261 30.9918 7.14099 29.5318 7.14099C25.8474 7.14099 22.9937 9.54327 22.9937 12.9186C22.9937 16.3369 25.6759 18.6834 29.5318 18.6126C30.6096 18.5724 32.0965 18.1939 33.0028 17.6118L31.5878 14.9942Z" fill="black"/>
<path d="M0 5.64453L2.72601 10.5171V13.4892L0.00318898 18.3522L0 5.64453Z" fill="#5B57A2"/>
<path d="M10.4668 8.744L13.0212 7.1784L18.2488 7.17352L10.4668 11.9409V8.744Z" fill="#D90751"/>
<path d="M10.4523 5.61582L10.4668 12.0669L7.73438 10.388V0.744751L10.4523 5.61582Z" fill="#FAB718"/>
<path d="M18.2488 7.17355L13.021 7.17842L10.4523 5.61582L7.73438 0.744751L18.2488 7.17355Z" fill="#ED6F26"/>
<path d="M10.4668 18.3793V15.2494L7.73438 13.6024L7.73588 23.2552L10.4668 18.3793Z" fill="#63B22F"/>
<path d="M13.0148 16.8279L2.72583 10.5171L0 5.64453L18.2378 16.8215L13.0148 16.8279Z" fill="#1487C9"/>
<path d="M7.73608 23.2552L10.4666 18.3793L13.0146 16.8279L18.2376 16.8215L7.73608 23.2552Z" fill="#017F36"/>
<path d="M0.00317383 18.3522L7.75671 13.6025L5.15 12.0032L2.726 13.4892L0.00317383 18.3522Z" fill="#984995"/>
</svg>
