<svg width="32" height="33" viewBox="0 0 32 33" fill="none" xmlns="http://www.w3.org/2000/svg">
<path d="M14.3503 2.90717C15.1447 1.74803 16.8553 1.74803 17.6497 2.90717L21.2407 8.14679C21.5007 8.52625 21.8837 8.80446 22.3249 8.93453L28.4177 10.7306C29.7656 11.1279 30.2943 12.7549 29.4373 13.8686L25.5638 18.9029C25.2833 19.2675 25.137 19.7176 25.1497 20.1775L25.3243 26.5271C25.363 27.9318 23.979 28.9373 22.655 28.4665L16.6701 26.3383C16.2367 26.1842 15.7633 26.1842 15.3299 26.3383L9.34501 28.4665C8.02099 28.9373 6.63703 27.9318 6.67567 26.5271L6.8503 20.1775C6.86295 19.7176 6.71669 19.2675 6.43616 18.9029L2.56266 13.8686C1.70573 12.7549 2.23435 11.1279 3.58225 10.7306L9.67508 8.93453C10.1163 8.80446 10.4993 8.52625 10.7593 8.14679L14.3503 2.90717Z" fill="#905FF4"/>
</svg>
