<svg width="32" height="32" viewBox="0 0 32 32" fill="none" xmlns="http://www.w3.org/2000/svg">
<path d="M10.9267 6.81074C12.5398 5.8445 14.3848 5.3339 16.2652 5.33331C17.8296 5.33239 19.3741 5.6846 20.7835 6.36368C22.1929 7.04276 23.4309 8.0312 24.4051 9.25532C25.3793 10.4794 26.0647 11.9077 26.4101 13.4335C26.7555 14.9594 26.752 16.5435 26.4 18.0679C26.0479 19.5922 25.3563 21.0174 24.3768 22.2373C23.3972 23.4571 22.155 24.4402 20.7426 25.1131C19.3303 25.786 17.7843 26.1315 16.2198 26.1237C14.9141 26.1173 13.6236 25.8649 12.4153 25.3822L6.7335 26.3283C6.09867 26.434 5.57976 25.8257 5.78421 25.2155L7.23772 20.8772C6.42808 19.4571 5.96304 17.8629 5.88492 16.2233C5.79543 14.3451 6.21706 12.4778 7.10492 10.8202C7.99277 9.16267 9.3136 7.77698 10.9267 6.81074Z" stroke="white" stroke-width="2" stroke-linecap="round" stroke-linejoin="round"/>
<path d="M21.5467 16.3577C21.3202 16.3577 21.1365 16.1741 21.1365 15.9475C21.1365 15.7209 21.3202 15.5372 21.5467 15.5372" stroke="white" stroke-width="2" stroke-linecap="round" stroke-linejoin="round"/>
<path d="M21.5468 16.3578C21.7734 16.3578 21.957 16.1741 21.957 15.9475C21.957 15.721 21.7734 15.5373 21.5468 15.5373" stroke="white" stroke-width="2" stroke-linecap="round" stroke-linejoin="round"/>
<path d="M16.4266 16.3577C16.2 16.3577 16.0164 16.1741 16.0164 15.9475C16.0164 15.7209 16.2 15.5372 16.4266 15.5372" stroke="white" stroke-width="2" stroke-linecap="round" stroke-linejoin="round"/>
<path d="M16.4267 16.3578C16.6532 16.3578 16.8369 16.1741 16.8369 15.9475C16.8369 15.721 16.6532 15.5373 16.4267 15.5373" stroke="white" stroke-width="2" stroke-linecap="round" stroke-linejoin="round"/>
<path d="M11.3067 16.3577C11.0802 16.3577 10.8965 16.1741 10.8965 15.9475C10.8965 15.7209 11.0802 15.5372 11.3067 15.5372" stroke="white" stroke-width="2" stroke-linecap="round" stroke-linejoin="round"/>
<path d="M11.3068 16.3578C11.5334 16.3578 11.717 16.1741 11.717 15.9475C11.717 15.721 11.5334 15.5373 11.3068 15.5373" stroke="white" stroke-width="2" stroke-linecap="round" stroke-linejoin="round"/>
</svg>
