<svg width="29" height="18" viewBox="0 0 29 18" fill="none" xmlns="http://www.w3.org/2000/svg">
<g clip-path="url(#clip0_2042_9025)">
<path d="M5.62966 6.10352e-05H12.8047C13.8063 6.10352e-05 14.4293 0.816434 14.1956 1.82133L10.8551 16.1635C10.6194 17.1649 9.61656 17.9819 8.61428 17.9819H1.43989C0.439711 17.9819 -0.184636 17.1649 0.0490133 16.1635L3.39093 1.82133C3.62458 0.816434 4.62686 6.10352e-05 5.62966 6.10352e-05Z" fill="#E21836"/>
<path d="M12.2078 6.10352e-05H20.459C21.4604 6.10352e-05 21.0088 0.816434 20.7733 1.82133L17.4333 16.1635C17.1989 17.1649 17.272 17.9819 16.2685 17.9819H8.01735C7.01385 17.9819 6.39283 17.1649 6.62858 16.1635L9.96839 1.82133C10.2055 0.816434 11.2057 6.10352e-05 12.2078 6.10352e-05Z" fill="#00447C"/>
<path d="M20.1316 6.10352e-05H27.3066C28.3096 6.10352e-05 28.9326 0.816434 28.697 1.82133L25.357 16.1635C25.1213 17.1649 24.1178 17.9819 23.115 17.9819H15.9432C14.9397 17.9819 14.3173 17.1649 14.5523 16.1635L17.8928 1.82133C18.1265 0.816434 19.1281 6.10352e-05 20.1316 6.10352e-05Z" fill="#007B84"/>
<path d="M7.50345 4.59631C6.7656 4.60383 6.54769 4.59631 6.47809 4.57987C6.45133 4.70701 5.95343 7.0038 5.95203 7.00573C5.84482 7.4704 5.76682 7.80164 5.50187 8.01552C5.35147 8.13987 5.17588 8.19985 4.97231 8.19985C4.6451 8.19985 4.45447 8.03738 4.42247 7.72923L4.41634 7.62343C4.41634 7.62343 4.51603 7.001 4.51603 6.99751C4.51603 6.99751 5.03859 4.90446 5.13216 4.62779C5.13705 4.61205 5.13845 4.60383 5.13968 4.59631C4.12253 4.60523 3.94223 4.59631 3.92981 4.57987C3.92299 4.60243 3.8978 4.73219 3.8978 4.73219L3.36422 7.09125L3.3184 7.29132L3.22974 7.94574C3.22974 8.13987 3.26786 8.29832 3.34376 8.43228C3.58686 8.85708 4.28028 8.92074 4.67255 8.92074C5.17798 8.92074 5.6521 8.81336 5.97249 8.61731C6.52863 8.2887 6.67414 7.77505 6.8039 7.3186L6.86406 7.08443C6.86406 7.08443 7.40237 4.91058 7.49383 4.62779C7.49733 4.61205 7.49873 4.60383 7.50345 4.59631ZM9.33499 6.34997C9.20522 6.34997 8.96808 6.38145 8.75506 6.48586C8.67776 6.52556 8.60466 6.57138 8.52754 6.61702L8.59714 6.36571L8.55902 6.32339C8.10728 6.41485 8.0062 6.42709 7.58892 6.48586L7.55394 6.50912C7.5055 6.91083 7.46247 7.21286 7.28287 8.00248C7.21448 8.29349 7.14348 8.5873 7.0723 8.87761L7.09154 8.91451C7.51914 8.89195 7.6489 8.89195 8.02054 8.89807L8.05062 8.86537C8.09784 8.6235 8.10396 8.56684 8.20854 8.07698C8.25769 7.84473 8.36017 7.33441 8.41071 7.1527C8.50358 7.10968 8.59522 7.06736 8.68266 7.06736C8.89095 7.06736 8.86559 7.24906 8.85755 7.32147C8.84863 7.44301 8.77273 7.84001 8.6949 8.18086L8.64296 8.40087C8.60676 8.56334 8.56706 8.72126 8.53086 8.88233L8.5466 8.91451C8.96808 8.89195 9.09662 8.89195 9.45654 8.89807L9.49886 8.86537C9.56392 8.48761 9.58298 8.38653 9.69841 7.83651L9.75647 7.5838C9.86927 7.08922 9.92593 6.83843 9.84059 6.63416C9.75035 6.40523 9.53384 6.34997 9.33499 6.34997ZM11.381 6.86779C11.157 6.91081 11.0141 6.9395 10.8721 6.95803C10.7313 6.98059 10.594 7.00106 10.3775 7.03114L10.3604 7.0467L10.3446 7.05912C10.3221 7.22037 10.3063 7.35975 10.2764 7.52362C10.2511 7.69308 10.2121 7.88563 10.1486 8.16231C10.0995 8.37409 10.0741 8.4479 10.0461 8.5224C10.0188 8.5969 9.98875 8.6693 9.93349 8.87759L9.94643 8.89683L9.95727 8.9145C10.1596 8.90488 10.292 8.89806 10.4281 8.89683C10.564 8.89194 10.7047 8.89683 10.9226 8.89806L10.9417 8.88249L10.9622 8.86535C10.9937 8.67752 10.9984 8.62698 11.0176 8.53534C11.0367 8.43705 11.0696 8.30099 11.1502 7.93758C11.1883 7.76689 11.2308 7.59672 11.2703 7.42253C11.3114 7.24905 11.3544 7.07818 11.3954 6.90749L11.3892 6.88686L11.381 6.86779ZM11.3858 6.16961C11.1822 6.04946 10.8249 6.08759 10.5845 6.25355C10.3447 6.4162 10.3174 6.64705 10.5203 6.76877C10.7204 6.8856 11.0791 6.85079 11.3174 6.68343C11.5567 6.51728 11.5866 6.28853 11.3858 6.16961ZM12.6169 8.95215C13.0288 8.95215 13.451 8.83865 13.7687 8.50181C14.0132 8.22864 14.1253 7.8222 14.1641 7.65484C14.2906 7.10009 14.1921 6.84109 14.0685 6.68334C13.8807 6.44287 13.5487 6.36574 13.2044 6.36574C12.9973 6.36574 12.5041 6.38621 12.1188 6.7414C11.8422 6.99761 11.7143 7.34529 11.6372 7.67862C11.5594 8.01825 11.4698 8.62966 12.0321 8.85719C12.2056 8.93169 12.4557 8.95215 12.6169 8.95215ZM12.5847 7.70398C12.6797 7.2839 12.7918 6.93133 13.0779 6.93133C13.3021 6.93133 13.3184 7.19366 13.2187 7.61514C13.2009 7.7087 13.119 8.05655 13.0083 8.20468C12.931 8.31399 12.8396 8.38027 12.7385 8.38027C12.7084 8.38027 12.5295 8.38027 12.5267 8.11462C12.5253 7.98345 12.552 7.84949 12.5847 7.70398ZM15.1937 8.89813L15.2259 8.86542C15.2715 8.62355 15.2791 8.56672 15.3801 8.07703C15.4307 7.84478 15.5353 7.33446 15.5844 7.15275C15.6774 7.10956 15.7675 7.06723 15.8578 7.06723C16.0646 7.06723 16.0395 7.24894 16.0312 7.32134C16.0237 7.44307 15.9478 7.83989 15.8686 8.18074L15.8195 8.40075C15.7819 8.56339 15.7409 8.72114 15.7047 8.88239L15.7205 8.91457C16.1433 8.89201 16.267 8.892 16.629 8.89813L16.6727 8.86542C16.7362 8.48749 16.7533 8.38641 16.8723 7.83656L16.9289 7.58368C17.0423 7.08909 17.0996 6.83848 17.0157 6.63421C16.9228 6.40529 16.7049 6.35002 16.5089 6.35002C16.3789 6.35002 16.1405 6.38133 15.9288 6.48591C15.853 6.52561 15.7771 6.57125 15.7026 6.61707L15.7675 6.36576L15.7327 6.32326C15.2811 6.41491 15.178 6.42715 14.7612 6.48591L14.7292 6.50917C14.6787 6.91088 14.6376 7.21274 14.458 8.00253C14.3896 8.29354 14.3186 8.58735 14.2476 8.87766L14.2666 8.91457C14.6949 8.89201 14.8228 8.892 15.1937 8.89813ZM18.3007 8.91448C18.3272 8.78471 18.4852 8.01556 18.4866 8.01556C18.4866 8.01556 18.6211 7.4512 18.6293 7.43074C18.6293 7.43074 18.6716 7.37197 18.7139 7.34871H18.7762C19.3636 7.34871 20.027 7.34871 20.5469 6.96624C20.9007 6.70391 21.1426 6.31653 21.2505 5.84574C21.2785 5.73031 21.2991 5.59302 21.2991 5.45574C21.2991 5.27543 21.2629 5.09704 21.1583 4.95766C20.8932 4.58672 20.3652 4.5799 19.7557 4.5771C19.7538 4.5771 19.4553 4.5799 19.4553 4.5799C18.6751 4.58952 18.3622 4.58672 18.2337 4.57098C18.2228 4.62782 18.2024 4.72891 18.2024 4.72891C18.2024 4.72891 17.9229 6.02412 17.9229 6.02622C17.9229 6.02622 17.2541 8.77999 17.2227 8.90976C17.9038 8.90154 18.1831 8.90154 18.3007 8.91448ZM18.8185 6.61366C18.8185 6.61366 19.1156 5.32107 19.1142 5.32597L19.1239 5.25969L19.1281 5.20915L19.2468 5.22139C19.2468 5.22139 19.8596 5.27403 19.8739 5.27543C20.1158 5.36899 20.2155 5.61016 20.1459 5.92496C20.0824 6.21265 19.8958 6.45452 19.656 6.57134C19.4586 6.67033 19.2167 6.67855 18.9675 6.67855H18.8063L18.8185 6.61366ZM20.6685 7.72792C20.59 8.06266 20.4998 8.67406 21.0592 8.89197C21.2376 8.96787 21.3975 8.99043 21.5599 8.98221C21.7315 8.97294 21.8905 8.8869 22.0377 8.76308C22.0244 8.81397 22.0111 8.86486 21.9978 8.91593L22.0232 8.94863C22.4256 8.93167 22.5505 8.93167 22.9865 8.93499L23.026 8.90491C23.0897 8.53065 23.1496 8.16724 23.3151 7.45125C23.3957 7.1083 23.4762 6.76867 23.5589 6.42711L23.5459 6.38951C23.0958 6.47293 22.9755 6.49077 22.5424 6.55216L22.5096 6.57891C22.5052 6.61372 22.5006 6.64712 22.4964 6.68052C22.4291 6.57174 22.3315 6.47888 22.181 6.42099C21.9884 6.34526 21.5361 6.44285 21.1474 6.79682C20.8742 7.04954 20.743 7.39581 20.6685 7.72792ZM21.614 7.74838C21.7103 7.33583 21.821 6.98675 22.1078 6.98675C22.2892 6.98675 22.3847 7.15412 22.3653 7.43953C22.3499 7.51071 22.3333 7.58574 22.3135 7.67056C22.2848 7.79315 22.2537 7.9147 22.2234 8.03642C22.1927 8.11967 22.1568 8.19819 22.1175 8.25048C22.0437 8.35507 21.8681 8.41995 21.767 8.41995C21.7383 8.41995 21.5613 8.41995 21.5552 8.15902C21.5538 8.02908 21.5806 7.89529 21.614 7.74838ZM26.5511 6.38617L26.5163 6.34647C26.0709 6.43671 25.9903 6.45105 25.581 6.50632L25.5509 6.5364C25.5495 6.5413 25.5483 6.54882 25.5462 6.55564L25.5448 6.54882C25.2402 7.25169 25.2491 7.10006 25.0011 7.6534C24.9997 7.62822 24.9997 7.61248 24.9983 7.58572L24.9362 6.38617L24.8972 6.34647C24.4306 6.43671 24.4196 6.45105 23.9887 6.50632L23.9551 6.5364C23.9504 6.55074 23.9504 6.56648 23.9476 6.58362L23.9504 6.58974C24.0042 6.86501 23.9913 6.80363 24.0453 7.23805C24.0705 7.45123 24.1041 7.66564 24.1293 7.87621C24.1718 8.22861 24.1956 8.40209 24.2475 8.93987C23.9565 9.42011 23.8876 9.60182 23.6074 10.0233L23.6093 10.0275L23.4121 10.3395C23.3895 10.3724 23.369 10.3949 23.3404 10.4046C23.3089 10.4201 23.268 10.4229 23.2111 10.4229H23.1018L22.9393 10.9633L23.4967 10.9729C23.8239 10.9715 24.0296 10.8185 24.1403 10.6128L24.4908 10.0123H24.4852L24.5221 9.96996C24.7578 9.46243 26.5511 6.38617 26.5511 6.38617ZM20.6685 13.4835H20.4321L21.3072 10.589H21.5975L21.6897 10.2908L21.6986 10.6224C21.6877 10.8273 21.849 11.009 22.2726 10.979H22.7624L22.931 10.4216H22.7467C22.6407 10.4216 22.5916 10.3948 22.5977 10.3375L22.5888 10.0001H21.6816V10.0019C21.3883 10.008 20.5125 10.03 20.3352 10.0773C20.1206 10.1325 19.8945 10.2952 19.8945 10.2952L19.9833 9.99663H19.1347L18.9579 10.589L18.0711 13.5278H17.899L17.7302 14.0811H19.4203L19.3637 14.2656H20.1965L20.2518 14.0811H20.4854L20.6685 13.4835ZM19.9751 11.1771C19.8392 11.2147 19.5863 11.3287 19.5863 11.3287L19.8112 10.589H20.4854L20.3228 11.128C20.3228 11.128 20.1145 11.1402 19.9751 11.1771ZM19.988 12.234C19.988 12.234 19.7762 12.2605 19.6369 12.292C19.4996 12.3336 19.2421 12.4648 19.2421 12.4648L19.4744 11.695H20.1521L19.988 12.234ZM19.6103 13.4903H18.934L19.13 12.8406H19.8042L19.6103 13.4903ZM21.2389 11.695H22.2137L22.0737 12.1486H21.0859L20.9376 12.6446H21.8019L21.1475 13.5661C21.1016 13.6338 21.0605 13.6577 21.0149 13.6768C20.9691 13.7 20.9089 13.7273 20.8393 13.7273H20.5995L20.4348 14.2705H21.0619C21.3879 14.2705 21.5805 14.1222 21.7227 13.9276L22.1714 13.3134L22.2678 13.937C22.2882 14.0538 22.3722 14.1222 22.429 14.1488C22.4918 14.1803 22.5567 14.2343 22.6483 14.2424C22.7466 14.2466 22.8176 14.2499 22.8648 14.2499H23.173L23.358 13.642H23.2365C23.1667 13.642 23.0466 13.6303 23.0261 13.6084C23.0056 13.5818 23.0056 13.5409 22.9946 13.4786L22.8968 12.8536H22.4965L22.6721 12.6446H23.658L23.8096 12.1486H22.8968L23.039 11.695H23.949L24.1177 11.1355H21.4049L21.2389 11.695ZM13.0056 13.6167L13.2331 12.8598H14.1682L14.3391 12.2968H13.4031L13.546 11.8309H14.4606L14.6301 11.2858H12.3415L12.1755 11.8309H12.6955L12.5568 12.2968H12.0355L11.8627 12.8694H12.3824L12.0792 13.8708C12.0383 14.0033 12.0984 14.0539 12.1365 14.1154C12.1755 14.1754 12.2151 14.2151 12.3039 14.2377C12.3955 14.2582 12.4583 14.2704 12.5437 14.2704H13.5979L13.7857 13.6467L13.3184 13.7109C13.2282 13.7109 12.9783 13.7001 13.0056 13.6167ZM13.1128 9.99322L12.8758 10.4215C12.8251 10.5151 12.7795 10.5731 12.7384 10.5999C12.7022 10.6225 12.6305 10.6319 12.5266 10.6319H12.4029L12.2377 11.1798H12.6483C12.8458 11.1798 12.9974 11.1074 13.0698 11.0712C13.1476 11.0296 13.1681 11.0534 13.2282 10.9953L13.3669 10.8752H14.6492L14.8194 10.3047H13.8807L14.0446 9.99322H13.1128ZM15.0059 13.6277C14.984 13.5962 14.9997 13.5407 15.0331 13.4253L15.3836 12.2653H16.6304C16.8121 12.2627 16.9433 12.2606 17.0286 12.2545C17.1202 12.2448 17.2199 12.2121 17.3285 12.1534C17.4406 12.0918 17.498 12.0269 17.5464 11.9524C17.6005 11.8781 17.6872 11.7155 17.7617 11.4647L18.2023 9.99666L16.9085 10.0042C16.9085 10.0042 16.5101 10.0629 16.3347 10.1278C16.1577 10.2002 15.9048 10.4024 15.9048 10.4024L16.0216 9.99998H15.2224L14.1034 13.7109C14.0637 13.855 14.0372 13.9596 14.031 14.0224C14.0289 14.0901 14.1164 14.1571 14.173 14.2076C14.24 14.2581 14.339 14.2499 14.434 14.2581C14.5338 14.2657 14.6758 14.2704 14.8719 14.2704H15.4861L15.6746 13.6338L15.1248 13.6857C15.066 13.6857 15.0235 13.6542 15.0059 13.6277ZM15.6097 11.4818H16.9193L16.8361 11.7427C16.8243 11.7489 16.7964 11.7298 16.6631 11.7455H15.5291L15.6097 11.4818ZM15.8721 10.6067H17.1926L17.0977 10.9209C17.0977 10.9209 16.4753 10.9148 16.3756 10.9332C15.937 11.0091 15.6807 11.2434 15.6807 11.2434L15.8721 10.6067ZM16.8654 12.6165C16.8545 12.6555 16.8374 12.6793 16.8134 12.6971C16.7868 12.7143 16.7438 12.7204 16.6796 12.7204H16.493L16.504 12.4026H15.7279L15.6964 13.9562C15.6952 14.0683 15.706 14.1331 15.7881 14.1851C15.8701 14.25 16.1228 14.2582 16.4629 14.2582H16.9493L17.1249 13.6767L16.7015 13.6999L16.5607 13.7082C16.5415 13.6999 16.5231 13.6924 16.5026 13.672C16.4848 13.6543 16.4547 13.6651 16.4596 13.553L16.4629 13.1548L16.907 13.1365C17.1468 13.1365 17.2492 13.0585 17.3367 12.9841C17.4201 12.913 17.4474 12.8311 17.4789 12.7204L17.5534 12.3678H16.9432L16.8654 12.6165Z" fill="#FEFEFE"/>
</g>
<defs>
<clipPath id="clip0_2042_9025">
<rect width="28.8" height="18" fill="white"/>
</clipPath>
</defs>
</svg>
