<svg width="32" height="32" viewBox="0 0 32 32" fill="none" xmlns="http://www.w3.org/2000/svg">
<path d="M21.4734 21.2151C21.3812 22.9123 20.0399 24.2674 18.3431 24.3666C16.7111 24.4621 15.0289 24.512 13.3099 24.512C11.5909 24.512 9.90858 24.4621 8.27662 24.3666C6.57983 24.2674 5.2385 22.9123 5.14631 21.2151C5.05026 19.4469 5 17.622 5 15.7561C5 13.8901 5.05026 12.0651 5.14632 10.2969C5.23851 8.59972 6.57984 7.24468 8.27662 7.14539C9.90859 7.0499 11.5909 7 13.3099 7C15.0289 7 16.7111 7.0499 18.3431 7.14539C20.0398 7.24467 21.3812 8.59972 21.4734 10.2969C21.5037 10.8557 21.5295 11.4202 21.5506 11.9899L25.5939 10.1929C26.2551 9.899 27 10.3831 27 11.1067V20.417C27 21.1407 26.2551 21.6247 25.5939 21.3308L21.5502 19.5336C21.5292 20.0994 21.5035 20.6601 21.4734 21.2151Z" stroke="#A6A2B3" stroke-width="3" stroke-linejoin="round"/>
</svg>
