<svg width="24" height="24" viewBox="0 0 24 24" fill="none" xmlns="http://www.w3.org/2000/svg">
<path d="M10 10.2917C10.1515 9.86101 10.4505 9.49785 10.8441 9.26653C11.2377 9.03521 11.7005 8.95065 12.1505 9.02783C12.6005 9.10501 13.0086 9.33896 13.3026 9.68822C13.5966 10.0375 13.7575 10.4795 13.7569 10.9361C13.7569 12.2249 11.8237 12.8693 11.8237 12.8693M11.8486 15.4488H11.8572" stroke="#352A58" stroke-width="2" stroke-linecap="round" stroke-linejoin="round"/>
<path d="M8.19509 5.10807C9.40493 4.38339 10.7887 4.00044 12.1989 4C13.3723 3.99931 14.5307 4.26346 15.5877 4.77277C16.6448 5.28208 17.5732 6.02341 18.3039 6.9415C19.0345 7.85959 19.5486 8.93076 19.8076 10.0752C20.0667 11.2195 20.0641 12.4077 19.8 13.5509C19.536 14.6942 19.0173 15.7631 18.2826 16.678C17.548 17.5929 16.6163 18.3301 15.557 18.8348C14.4978 19.3395 13.3383 19.5986 12.1649 19.5928C11.1856 19.588 10.2178 19.3987 9.31154 19.0367L5.05019 19.7463C4.57407 19.8255 4.18488 19.3693 4.33822 18.9116L5.42835 15.6579C4.82112 14.5928 4.47234 13.3972 4.41375 12.1675C4.34663 10.7588 4.66286 9.35834 5.32875 8.11518C5.99464 6.87202 6.98526 5.83275 8.19509 5.10807Z" stroke="#352A58" stroke-width="2" stroke-linecap="round" stroke-linejoin="round"/>
</svg>
