<svg width="24" height="24" viewBox="0 0 24 24" fill="none" xmlns="http://www.w3.org/2000/svg">
<path d="M6.5 16.1067C6.5 16.3995 6.5 16.5459 6.51306 16.6731C6.62146 17.7296 7.3855 18.6023 8.41838 18.8494C8.54279 18.8791 8.68792 18.8985 8.97807 18.9371L14.4713 19.6696C16.035 19.8781 16.8169 19.9823 17.4237 19.741C17.9565 19.5292 18.4002 19.1407 18.6806 18.6406C19 18.071 19 17.2822 19 15.7047V8.17547C19 6.59794 19 5.80917 18.6806 5.23956C18.4002 4.73947 17.9565 4.35094 17.4237 4.1391C16.8169 3.89782 16.035 4.00207 14.4713 4.21056L8.97807 4.943C8.68788 4.98169 8.54279 5.00103 8.41838 5.03079C7.3855 5.27787 6.62145 6.15055 6.51306 7.20702C6.5 7.33428 6.5 7.48065 6.5 7.77341M11.5 8.60674L14.8333 11.9401M14.8333 11.9401L11.5 15.2734M14.8333 11.9401H4" stroke="#A6A2B3" stroke-width="2" stroke-linecap="round" stroke-linejoin="round"/>
</svg>
