<svg width="24" height="24" viewBox="0 0 24 24" fill="none" xmlns="http://www.w3.org/2000/svg">
<path d="M9.87457 19.2C10.4387 19.6979 11.1797 20 11.9912 20C12.8028 20 13.5438 19.6979 14.1079 19.2M16.7912 8.8C16.7912 7.52696 16.2855 6.30606 15.3853 5.40589C14.4852 4.50571 13.2643 4 11.9912 4C10.7182 4 9.49729 4.50571 8.59711 5.40589C7.69694 6.30606 7.19123 7.52696 7.19123 8.8C7.19123 11.2721 6.5676 12.9648 5.87096 14.0843C5.28333 15.0287 4.98951 15.5009 5.00029 15.6326C5.01221 15.7785 5.04311 15.8341 5.16065 15.9213C5.26679 16 5.7453 16 6.70231 16H17.2801C18.2372 16 18.7157 16 18.8218 15.9213C18.9393 15.8341 18.9702 15.7785 18.9822 15.6326C18.9929 15.5009 18.6991 15.0287 18.1115 14.0843C17.4149 12.9648 16.7912 11.2721 16.7912 8.8Z" stroke="#352A58" stroke-width="2" stroke-linecap="round" stroke-linejoin="round"/>
</svg>
