<svg width="24" height="24" viewBox="0 0 24 24" fill="none" xmlns="http://www.w3.org/2000/svg">
<path d="M5.14419 16.5325C4.64513 14.3822 4.41484 11.9285 4.3286 10.356C4.28972 9.647 4.86128 9.07147 5.57136 9.07147H18.4285C19.1386 9.07147 19.7101 9.647 19.6713 10.356C19.585 11.9285 19.3547 14.3822 18.8557 16.5325C18.6244 17.529 17.8908 18.2878 16.8785 18.4347C15.8353 18.586 14.2513 18.7143 11.9999 18.7143C9.74859 18.7143 8.16454 18.586 7.1214 18.4347C6.10902 18.2878 5.37546 17.529 5.14419 16.5325Z" stroke="#352A58" stroke-width="2" stroke-linecap="round" stroke-linejoin="round"/>
<path d="M7.5 8.07136V7.78564C7.5 5.30036 9.51472 3.28564 12 3.28564V3.28564C14.4853 3.28564 16.5 5.30036 16.5 7.78564V8.07136" stroke="#352A58" stroke-width="2.25" stroke-linecap="round" stroke-linejoin="round"/>
<path d="M9.42847 12.9285V14.8571M14.5713 12.9285V14.8571" stroke="#352A58" stroke-width="1.92857" stroke-linecap="round" stroke-linejoin="round"/>
</svg>
