<svg width="24" height="24" viewBox="0 0 24 24" fill="none" xmlns="http://www.w3.org/2000/svg">
<path d="M19.3365 6.77313C19.4362 6.8118 19.5228 6.87852 19.5861 6.9654C19.68 7.07951 19.7269 7.22585 19.7168 7.37398C20.0963 10.7488 20.0925 12.7142 19.7168 16.1223C19.7153 16.2423 19.6782 16.3591 19.6104 16.4576C19.5427 16.5561 19.4473 16.6319 19.3365 16.6751L12.206 19.451L11.9921 19.5097L11.7782 19.451L4.64764 16.6751C4.5369 16.6319 4.44149 16.5561 4.37371 16.4576C4.30593 16.3591 4.26888 16.2423 4.26734 16.1223C3.90764 12.7547 3.91415 10.7181 4.26734 7.32591C4.26892 7.19417 4.31506 7.06695 4.39807 6.9654C4.46739 6.89614 4.55343 6.84643 4.64764 6.8212" stroke="#352A58" stroke-width="2" stroke-linecap="round" stroke-linejoin="round"/>
<path d="M19.7061 7.21582C19.6872 7.12442 19.6463 7.03824 19.5862 6.96525C19.5229 6.87837 19.4363 6.81164 19.3367 6.77298L12.2062 4.04515C12.1387 4.01537 12.0659 4 11.9922 4C11.9186 4 11.8458 4.01537 11.7783 4.04515L4.6478 6.82105C4.55359 6.84628 4.46755 6.89599 4.39823 6.96525C4.3381 7.0388 4.29732 7.12582 4.27881 7.21827C4.29467 7.2991 4.32689 7.37618 4.37387 7.44448C4.44165 7.543 4.53706 7.61874 4.6478 7.66193L11.7783 10.4378H12.2062L19.3367 7.66193C19.4474 7.61874 19.5428 7.543 19.6106 7.44448C19.6581 7.37549 19.6905 7.29755 19.7061 7.21582Z" stroke="#352A58" stroke-width="2" stroke-linecap="round" stroke-linejoin="round"/>
<path d="M11.9927 19.5099L11.9927 10.4379" stroke="#352A58" stroke-width="2" stroke-linecap="round" stroke-linejoin="round"/>
</svg>
