<svg width="24" height="24" viewBox="0 0 24 24" fill="none" xmlns="http://www.w3.org/2000/svg">
<path d="M9.67178 18.5155L10.1938 19.6895C10.349 20.039 10.6022 20.3359 10.9228 20.5443C11.2434 20.7527 11.6176 20.8636 12 20.8636C12.3824 20.8636 12.7566 20.7527 13.0772 20.5443C13.3978 20.3359 13.651 20.039 13.8062 19.6895L14.3282 18.5155C14.514 18.0989 14.8266 17.7516 15.2214 17.5231C15.6187 17.2939 16.0782 17.1963 16.5344 17.2442L17.8116 17.3802C18.1918 17.4204 18.5755 17.3494 18.9162 17.1759C19.2569 17.0024 19.5399 16.7338 19.7309 16.4026C19.9222 16.0717 20.0134 15.6923 19.9933 15.3106C19.9732 14.9288 19.8428 14.5611 19.6178 14.2521L18.8616 13.213C18.5923 12.8403 18.4484 12.3916 18.4507 11.9318C18.4506 11.4732 18.5959 11.0264 18.8656 10.6555L19.6218 9.61646C19.8468 9.3074 19.9772 8.93969 19.9973 8.55795C20.0174 8.17621 19.9262 7.79685 19.7349 7.46589C19.5439 7.13473 19.2608 6.86611 18.9202 6.6926C18.5795 6.51909 18.1958 6.44814 17.8156 6.48835L16.5383 6.62432C16.0822 6.67222 15.6226 6.5746 15.2254 6.34545C14.8298 6.11563 14.5171 5.76649 14.3322 5.34806L13.8062 4.17403C13.651 3.82456 13.3978 3.52761 13.0772 3.31922C12.7566 3.11083 12.3824 2.99994 12 3C11.6176 2.99994 11.2434 3.11083 10.9228 3.31922C10.6022 3.52761 10.349 3.82456 10.1938 4.17403L9.67178 5.34806C9.48683 5.76649 9.17417 6.11563 8.77861 6.34545C8.38134 6.5746 7.92175 6.67222 7.46564 6.62432L6.18442 6.48835C5.80422 6.44814 5.42052 6.51909 5.07984 6.6926C4.73916 6.86611 4.45614 7.13473 4.26508 7.46589C4.07378 7.79685 3.98265 8.17621 4.00273 8.55795C4.02281 8.93969 4.15325 9.3074 4.37822 9.61646L5.13444 10.6555C5.40413 11.0264 5.54936 11.4732 5.54927 11.9318C5.54936 12.3903 5.40413 12.8371 5.13444 13.208L4.37822 14.2471C4.15325 14.5562 4.02281 14.9239 4.00273 15.3056C3.98265 15.6873 4.07378 16.0667 4.26508 16.3977C4.45633 16.7287 4.73939 16.9971 5.08002 17.1706C5.42065 17.3441 5.80425 17.4152 6.18442 17.3752L7.46167 17.2392C7.91778 17.1913 8.37737 17.2889 8.77464 17.5181C9.17168 17.7473 9.48579 18.0965 9.67178 18.5155Z" stroke="#352A58" stroke-width="2" stroke-linecap="round" stroke-linejoin="round"/>
<path d="M11.9984 14.6113C13.4783 14.6113 14.6779 13.4116 14.6779 11.9318C14.6779 10.4519 13.4783 9.25224 11.9984 9.25224C10.5185 9.25224 9.31887 10.4519 9.31887 11.9318C9.31887 13.4116 10.5185 14.6113 11.9984 14.6113Z" stroke="#352A58" stroke-width="2" stroke-linecap="round" stroke-linejoin="round"/>
</svg>
