<svg width="24" height="24" viewBox="0 0 24 24" fill="none" xmlns="http://www.w3.org/2000/svg">
<path d="M8.19509 5.10807C9.40493 4.38339 10.7887 4.00044 12.1989 4C13.3723 3.99931 14.5307 4.26346 15.5877 4.77277C16.6448 5.28208 17.5732 6.02341 18.3039 6.9415C19.0345 7.85959 19.5486 8.93076 19.8076 10.0752C20.0667 11.2195 20.0641 12.4077 19.8 13.5509C19.536 14.6942 19.0173 15.7631 18.2826 16.678C17.548 17.5929 16.6163 18.3301 15.557 18.8348C14.4978 19.3395 13.3383 19.5986 12.1649 19.5928C11.1856 19.588 10.2178 19.3987 9.31154 19.0367L5.05019 19.7463C4.57407 19.8255 4.18488 19.3693 4.33822 18.9116L5.42835 15.6579C4.82112 14.5928 4.47234 13.3972 4.41375 12.1675C4.34663 10.7588 4.66286 9.35834 5.32875 8.11518C5.99464 6.87202 6.98526 5.83275 8.19509 5.10807Z" stroke="#352A58" stroke-width="2" stroke-linecap="round" stroke-linejoin="round"/>
<path d="M16.16 12.2683C15.9901 12.2683 15.8523 12.1306 15.8523 11.9606C15.8523 11.7907 15.9901 11.653 16.16 11.653" stroke="#352A58" stroke-width="2" stroke-linecap="round" stroke-linejoin="round"/>
<path d="M16.1601 12.2683C16.33 12.2683 16.4678 12.1306 16.4678 11.9606C16.4678 11.7907 16.33 11.653 16.1601 11.653" stroke="#352A58" stroke-width="2" stroke-linecap="round" stroke-linejoin="round"/>
<path d="M12.3201 12.2683C12.1502 12.2683 12.0125 12.1306 12.0125 11.9606C12.0125 11.7907 12.1502 11.653 12.3201 11.653" stroke="#352A58" stroke-width="2" stroke-linecap="round" stroke-linejoin="round"/>
<path d="M12.3202 12.2683C12.4902 12.2683 12.6279 12.1306 12.6279 11.9606C12.6279 11.7907 12.4902 11.653 12.3202 11.653" stroke="#352A58" stroke-width="2" stroke-linecap="round" stroke-linejoin="round"/>
<path d="M8.48006 12.2683C8.31012 12.2683 8.17236 12.1306 8.17236 11.9606C8.17236 11.7907 8.31012 11.653 8.48006 11.653" stroke="#352A58" stroke-width="2" stroke-linecap="round" stroke-linejoin="round"/>
<path d="M8.48015 12.2683C8.65008 12.2683 8.78784 12.1306 8.78784 11.9606C8.78784 11.7907 8.65008 11.653 8.48015 11.653" stroke="#352A58" stroke-width="2" stroke-linecap="round" stroke-linejoin="round"/>
</svg>
