<svg width="24" height="24" viewBox="0 0 24 24" fill="none" xmlns="http://www.w3.org/2000/svg">
<path d="M15.3909 5.79208C16.2394 7.70728 16.1096 10.7014 15.9581 12.3082C15.8976 12.9488 15.3524 13.4158 14.709 13.4158H7.35996C6.7165 13.4158 6.17127 12.9488 6.11086 12.3082C5.95934 10.7014 5.82952 7.70728 6.67802 5.79208C7.49105 3.95695 9.57655 2.1491 10.5368 1.38265C10.8304 1.14829 11.2385 1.14829 11.5321 1.38265C12.4924 2.1491 14.5779 3.95695 15.3909 5.79208Z" stroke="#352A58" stroke-width="2"/>
<path d="M11.0344 9.05939V19.3297" stroke="#352A58" stroke-width="2" stroke-linecap="round"/>
<path d="M9 17.5556C9 17.2487 9.24873 17 9.55556 17H12.4444C12.7513 17 13 17.2487 13 17.5556V21C13 22.1046 12.1046 23 11 23C9.89543 23 9 22.1046 9 21V17.5556Z" fill="white" stroke="#352A58" stroke-width="2"/>
</svg>
