<svg width="24" height="24" viewBox="0 0 24 24" fill="none" xmlns="http://www.w3.org/2000/svg">
<rect x="3" y="2" width="16.3333" height="5" rx="1.77778" stroke="#352A58" stroke-width="2"/>
<path d="M19.2221 4.05554H20.8888C21.5024 4.05554 21.9999 4.553 21.9999 5.16665V9.6111C21.9999 10.2247 21.5024 10.7222 20.8888 10.7222H12.5554C11.9418 10.7222 11.4443 11.2197 11.4443 11.8333V13.7778" stroke="#352A58" stroke-width="2"/>
<path d="M9.22217 14.3333C9.22217 14.0265 9.4709 13.7778 9.77772 13.7778H13.1111C13.4179 13.7778 13.6666 14.0265 13.6666 14.3333V20.4444C13.6666 21.6717 12.6717 22.6667 11.4444 22.6667V22.6667C10.2171 22.6667 9.22217 21.6717 9.22217 20.4444V14.3333Z" stroke="#352A58" stroke-width="2"/>
</svg>
