<svg width="24" height="24" viewBox="0 0 24 24" fill="none" xmlns="http://www.w3.org/2000/svg">
<mask id="path-1-inside-1_2107_6517" fill="white">
<path fill-rule="evenodd" clip-rule="evenodd" d="M14.4981 9.65067C14.5308 10.1949 14.9324 10.6457 15.4692 10.7409L16.1814 10.8672C17.2645 11.0593 18.0146 12.0563 17.8992 13.1502L17.0772 20.9372C16.9534 22.1099 15.9644 23 14.7852 23H8.1257C6.94648 23 5.95746 22.1099 5.83368 20.9372L5.01172 13.1502C4.89625 12.0563 5.64638 11.0593 6.72949 10.8672L7.44174 10.7409C7.97856 10.6457 8.38013 10.1949 8.41287 9.65066L8.86818 2.08317C8.90479 1.47471 9.40892 1 10.0185 1H12.8925C13.502 1 14.0062 1.47471 14.0428 2.08317L14.4981 9.65067Z"/>
</mask>
<path d="M16.1814 10.8672L15.8321 12.8365L16.1814 10.8672ZM17.8992 13.1502L15.9102 12.9403L17.8992 13.1502ZM17.0772 20.9372L15.0883 20.7272H15.0883L17.0772 20.9372ZM5.83368 20.9372L7.82263 20.7272V20.7272L5.83368 20.9372ZM5.01172 13.1502L3.02277 13.3601L5.01172 13.1502ZM6.72949 10.8672L6.38023 8.89795H6.38023L6.72949 10.8672ZM8.86818 2.08317L10.8646 2.20329V2.20329L8.86818 2.08317ZM14.0428 2.08317L12.0464 2.20328V2.20328L14.0428 2.08317ZM15.4692 10.7409L15.12 12.7102H15.12L15.4692 10.7409ZM15.12 12.7102L15.8321 12.8365L16.5307 8.89795L15.8185 8.77164L15.12 12.7102ZM15.8321 12.8365C15.8814 12.8452 15.9155 12.8905 15.9102 12.9403L19.8881 13.3601C20.1138 11.222 18.6476 9.2734 16.5307 8.89795L15.8321 12.8365ZM15.9102 12.9403L15.0883 20.7272L19.0662 21.1471L19.8881 13.3601L15.9102 12.9403ZM15.0883 20.7272C15.0719 20.8823 14.9411 21 14.7852 21V25C16.9877 25 18.835 23.3375 19.0662 21.1471L15.0883 20.7272ZM14.7852 21H8.1257V25H14.7852V21ZM8.1257 21C7.96977 21 7.83899 20.8823 7.82263 20.7272L3.84473 21.1471C4.07593 23.3375 5.92318 25 8.1257 25V21ZM7.82263 20.7272L7.00067 12.9403L3.02277 13.3601L3.84473 21.1471L7.82263 20.7272ZM7.00067 12.9403C6.99542 12.8905 7.02951 12.8452 7.07874 12.8365L6.38023 8.89795C4.26326 9.2734 2.79707 11.222 3.02277 13.3601L7.00067 12.9403ZM7.07874 12.8365L7.791 12.7102L7.09248 8.77163L6.38023 8.89795L7.07874 12.8365ZM10.4093 9.77077L10.8646 2.20329L6.87179 1.96305L6.41648 9.53054L10.4093 9.77077ZM10.8646 2.20329C10.8376 2.65083 10.4668 3 10.0185 3V-1C8.351 -1 6.97193 0.298582 6.87179 1.96305L10.8646 2.20329ZM10.0185 3H12.8925V-1H10.0185V3ZM12.8925 3C12.4441 3 12.0733 2.65083 12.0464 2.20328L16.0392 1.96305C15.939 0.298581 14.56 -1 12.8925 -1V3ZM12.0464 2.20328L12.5017 9.77079L16.4945 9.53055L16.0392 1.96305L12.0464 2.20328ZM7.791 12.7102C9.23833 12.4535 10.321 11.238 10.4093 9.77077L6.41648 9.53054C6.43927 9.15171 6.7188 8.8379 7.09248 8.77163L7.791 12.7102ZM15.8185 8.77164C16.1922 8.83792 16.4717 9.15173 16.4945 9.53055L12.5017 9.77079C12.59 11.2381 13.6726 12.4535 15.12 12.7102L15.8185 8.77164Z" fill="#352A58" mask="url(#path-1-inside-1_2107_6517)"/>
<path d="M6.4834 12.5238H11.7215H16.9596" stroke="#352A58" stroke-width="2"/>
</svg>
