<svg width="24" height="24" viewBox="0 0 24 24" fill="none" xmlns="http://www.w3.org/2000/svg">
<path d="M7.89621 2.28566L7.44656 2.46552C6.79417 2.72648 6.46991 3.46094 6.71662 4.11885C6.88072 4.55645 7.21989 4.90578 7.65244 5.08274L11.2107 6.53841C11.7904 6.77555 12.441 6.77016 13.0167 6.52344L16.4408 5.05596C16.8186 4.89404 17.1268 4.60346 17.3106 4.23582C17.6607 3.5356 17.3376 2.6857 16.6107 2.39496L16.2246 2.24049C15.837 2.08547 15.4063 2.07659 15.0127 2.21551L12.5448 3.08656C11.9706 3.28921 11.34 3.25983 10.7871 3.00467L9.30874 2.32233C8.86293 2.11657 8.3521 2.10331 7.89621 2.28566Z" stroke="#352A58" stroke-width="2"/>
<path d="M8.49052 5.05276L11.8831 6.67531L12.1169 21.4026H7.44156C6.92514 21.4026 6.50649 20.9839 6.50649 20.4675V17.1948H4.16883L3.28003 12.0397C3.09881 10.9887 3.28242 9.90721 3.80041 8.97484L5.43844 6.02638C6.03856 4.94617 7.37573 4.51961 8.49052 5.05276Z" fill="white"/>
<path d="M6.50649 17.1948H4.16883L3.28003 12.0397C3.09881 10.9887 3.28242 9.90721 3.80041 8.97484L5.43844 6.02638C6.03856 4.94617 7.37573 4.51961 8.49052 5.05276L11.8831 6.67531L12.1169 21.4026H7.44156C6.92514 21.4026 6.50649 20.9839 6.50649 20.4675V17.1948ZM6.50649 17.1948V11.1169" stroke="#352A58" stroke-width="2" stroke-linecap="round" stroke-linejoin="round"/>
<path d="M15.5095 5.05276L12.1169 6.67531L11.8831 21.4026H16.5584C17.0749 21.4026 17.4935 20.9839 17.4935 20.4675V17.1948H19.0731C19.5111 17.1948 19.8855 16.8794 19.96 16.4477L20.72 12.0397C20.9012 10.9887 20.7176 9.90721 20.1996 8.97484L18.5616 6.02638C17.9614 4.94617 16.6243 4.51961 15.5095 5.05276Z" fill="white"/>
<path d="M17.4935 17.1948H19.0731C19.5111 17.1948 19.8855 16.8794 19.96 16.4477L20.72 12.0397C20.9012 10.9887 20.7176 9.90721 20.1996 8.97484L18.5616 6.02638C17.9614 4.94617 16.6243 4.51961 15.5095 5.05276L12.1169 6.67531L11.8831 21.4026H16.5584C17.0749 21.4026 17.4935 20.9839 17.4935 20.4675V17.1948ZM17.4935 17.1948V10.6493" stroke="#352A58" stroke-width="2" stroke-linecap="round"/>
</svg>
