<svg width="24" height="24" viewBox="0 0 24 24" fill="none" xmlns="http://www.w3.org/2000/svg">
<path fill-rule="evenodd" clip-rule="evenodd" d="M22.4823 5.90869C22.6454 5.39612 22.4823 5.02332 21.76 5.02332H19.3601C18.7543 5.02332 18.4747 5.34948 18.3117 5.69904C18.3117 5.69904 17.0767 8.68138 15.3526 10.6152C14.7934 11.1744 14.5371 11.3608 14.2342 11.3608C14.0711 11.3608 13.8614 11.1744 13.8614 10.6618V5.88537C13.8614 5.2796 13.675 5 13.1624 5H9.38789C9.01508 5 8.78212 5.2796 8.78212 5.5592C8.78212 6.14172 9.64417 6.28149 9.73737 7.91246V11.454C9.73737 12.2229 9.5976 12.3627 9.29469 12.3627C8.4792 12.3627 6.49874 9.35703 5.31046 5.932C5.07742 5.25628 4.84446 5 4.23869 5H1.81548C1.1165 5 1 5.32624 1 5.67572C1 6.3048 1.81548 9.47355 4.79782 13.6675C6.77835 16.5333 9.5976 18.0711 12.1373 18.0711C13.675 18.0711 13.8614 17.7216 13.8614 17.1392V14.9723C13.8614 14.2733 14.0012 14.1568 14.4905 14.1568C14.84 14.1568 15.4691 14.3431 16.8903 15.7178C18.5213 17.3488 18.8009 18.0944 19.7096 18.0944H22.1095C22.8085 18.0944 23.1347 17.7449 22.9483 17.0692C22.7386 16.3936 21.9464 15.415 20.9212 14.2499C20.362 13.5976 19.5232 12.8753 19.2669 12.5258C18.9174 12.0598 19.0106 11.8734 19.2669 11.454C19.2437 11.454 22.1794 7.30669 22.4823 5.90869Z" fill="#352A58"/>
</svg>
