<svg width="22" height="21" viewBox="0 0 22 21" fill="none" xmlns="http://www.w3.org/2000/svg">
<path d="M9.91867 0.831545C10.5231 -0.0504128 11.8247 -0.0504132 12.4292 0.831545L15.1614 4.81821C15.3593 5.10693 15.6506 5.31861 15.9864 5.41758L20.6222 6.78414C21.6478 7.08646 22.05 8.32435 21.398 9.17175L18.4507 13.0022C18.2373 13.2796 18.126 13.6221 18.1356 13.972L18.2685 18.8033C18.2979 19.8721 17.2449 20.6371 16.2375 20.2789L11.6838 18.6596C11.354 18.5423 10.9938 18.5423 10.6641 18.6596L6.11033 20.2789C5.10292 20.6371 4.04992 19.8721 4.07931 18.8033L4.21219 13.972C4.22181 13.6221 4.11052 13.2796 3.89708 13.0022L0.949847 9.17175C0.297838 8.32435 0.700051 7.08646 1.72563 6.78414L6.36147 5.41758C6.69721 5.31861 6.98857 5.10693 7.18644 4.81821L9.91867 0.831545Z" fill="#905ff4"/>
</svg>
