<svg width="24" height="24" viewBox="0 0 24 24" fill="none" xmlns="http://www.w3.org/2000/svg">
<circle cx="12" cy="12" r="8" stroke="#352A58" stroke-width="2"/>
<path d="M9.86997 15.6843V15.7778L9.96332 15.784C10.5159 15.8209 11.2326 15.8392 12.1128 15.8392C13.0062 15.8392 13.7262 15.6382 14.2618 15.225C14.8032 14.8074 15.07 14.2044 15.07 13.4315C15.07 12.9383 14.9445 12.5264 14.6856 12.2044C14.4717 11.9324 14.1936 11.7345 13.8543 11.6096C14.1412 11.4461 14.3666 11.2373 14.5271 10.982C14.7222 10.6719 14.8172 10.3 14.8172 9.87107C14.8172 9.25107 14.5975 8.7558 14.1537 8.39765C13.7105 8.04003 13.0499 7.86997 12.1898 7.86997C11.4994 7.86997 10.7579 7.88833 9.96535 7.92502L9.86997 7.92944V8.02492V15.6843ZM13.2083 12.7215L13.2083 12.7215L13.21 12.7227C13.4134 12.8625 13.5183 13.0711 13.5183 13.3656C13.5183 13.713 13.4094 13.958 13.2047 14.1195C12.9955 14.2846 12.6701 14.3755 12.2117 14.3755C11.9888 14.3755 11.7256 14.3605 11.4216 14.3303V12.4876H12.2777C12.691 12.4876 12.9972 12.5698 13.2083 12.7215ZM12.9941 10.871L12.9941 10.8709L12.9928 10.8721C12.8103 11.0285 12.5609 11.1117 12.2337 11.1117H11.4216V9.35867C11.6388 9.34208 11.8875 9.33371 12.1678 9.33371C12.5351 9.33371 12.8069 9.41503 12.9957 9.5648L12.9957 9.56482L12.9974 9.56612C13.1809 9.70531 13.2766 9.90788 13.2766 10.1898C13.2766 10.4961 13.1791 10.7179 12.9941 10.871Z" fill="#352A58" stroke="#352A58" stroke-width="0.2"/>
</svg>
