<svg width="24" height="24" viewBox="0 0 24 24" fill="none" xmlns="http://www.w3.org/2000/svg">
<path d="M13.3112 2.19629L6.08521 6.55784L17.4202 7.55388L15.2542 2.79772C14.9166 2.05661 14.0084 1.77547 13.3112 2.19629Z" fill="white" stroke="#352A58" stroke-width="2" stroke-linecap="round" stroke-linejoin="round"/>
<path d="M4.33651 15.9382C4.56462 17.2335 5.60055 18.2744 6.90096 18.4717C8.19219 18.6676 9.35816 18.86 11.1489 18.86C12.9397 18.86 14.1057 18.6676 15.3969 18.4717C16.6973 18.2744 17.7333 17.2335 17.9614 15.9382C18.1374 14.9387 18.2979 14.0708 18.2979 12.3919C18.2979 10.7129 18.1374 9.84503 17.9614 8.8456C17.7333 7.55024 16.6973 6.50935 15.3969 6.31206C14.1057 6.11616 12.9397 5.9238 11.1489 5.9238C9.35816 5.9238 8.19219 6.11616 6.90096 6.31206C5.60055 6.50935 4.56462 7.55024 4.33651 8.8456C4.16052 9.84503 4 10.7129 4 12.3919C4 14.0708 4.16052 14.9387 4.33651 15.9382Z" fill="white" stroke="#352A58" stroke-width="2"/>
<path d="M18.5951 14.3663H14.5533C13.4252 14.3663 12.5107 13.4518 12.5107 12.3237C12.5107 11.1957 13.4252 10.2812 14.5533 10.2812H18.5951C19.3711 10.2812 20.0001 10.9102 20.0001 11.6862V12.9613C20.0001 13.7373 19.3711 14.3663 18.5951 14.3663Z" fill="white" stroke="#352A58" stroke-width="2" stroke-linecap="round"/>
<path d="M6.08521 6.55784L13.3112 2.19629C14.0084 1.77547 14.9166 2.05661 15.2542 2.79772L17.4202 7.55388" stroke="#352A58" stroke-width="2" stroke-linecap="round"/>
</svg>
